<svg version="1.1" xmlns="http://www.w3.org/2000/svg" fill="none" width="2000" height="2000">
<path d="M0 0 C1.67642578 0.38285156 1.67642578 0.38285156 3.38671875 0.7734375 C17.44629426 4.54340978 30.37350788 12.14634367 41 22 C41.74894531 22.69222656 42.49789063 23.38445312 43.26953125 24.09765625 C47.40533939 28.08000212 50.90304603 32.16100942 54 37 C54 37.66 54 38.32 54 39 C54.66 39 55.32 39 56 39 C72.74718336 69.39357819 79.21156177 100.03926372 79.13037109 134.59838867 C79.12503113 137.29676994 79.13033439 139.99498328 79.13671875 142.69335938 C79.14841702 169.55474893 79.14841702 169.55474893 77 176 C76.75952559 178.09643896 76.56148172 180.19784469 76.38671875 182.30078125 C76.27521484 183.57759766 76.16371094 184.85441406 76.04882812 186.16992188 C75.96097046 187.18397095 75.96097046 187.18397095 75.87133789 188.21850586 C74.66294642 201.98261434 72.77192044 215.45819761 70 229 C69.76539063 230.21945312 69.53078125 231.43890625 69.2890625 232.6953125 C68.55810162 236.47051047 67.78603551 240.23599516 67 244 C66.78585449 245.02963867 66.57170898 246.05927734 66.35107422 247.12011719 C61.09667117 272.29204671 61.09667117 272.29204671 57.921875 283.6640625 C57.09740055 286.64754208 56.33871117 289.64038853 55.60668945 292.64770508 C51.55360766 309.28526689 46.54135711 325.65893307 41.515625 342.0234375 C40.29595944 346.00316106 39.12598589 349.99281491 38 354 C37.34 354 36.68 354 36 354 C35.94392578 354.85271484 35.94392578 354.85271484 35.88671875 355.72265625 C35.50404082 360.21724601 34.84195766 363.82339724 32.8828125 367.94140625 C31.2653939 371.71299742 30.2150996 375.67980172 29.03515625 379.60546875 C28.07416569 382.75679253 27.05417521 385.87881457 26 389 C23.87867255 395.29663862 21.92794923 401.64186955 20 408 C19.34 408 18.68 408 18 408 C17.87625 409.03253906 17.7525 410.06507813 17.625 411.12890625 C17.05515746 414.65836847 16.23799931 417.59748102 15 420.9375 C14.32904297 422.75701172 14.32904297 422.75701172 13.64453125 424.61328125 C13.259021 425.64122803 13.259021 425.64122803 12.86572266 426.68994141 C11.88578297 429.304772 10.91766255 431.92385937 9.94921875 434.54296875 C5.45899564 446.64280345 0.799863 458.66310521 -4.04248047 470.62597656 C-4.96440049 472.91173646 -5.87679313 475.20101044 -6.78515625 477.4921875 C-11.16531758 488.53085306 -15.66387659 499.51953792 -20.1875 510.5 C-20.48754944 511.22834045 -20.78759888 511.95668091 -21.09674072 512.70709229 C-24.71198616 521.47941174 -28.34185521 530.24546545 -32 539 C-32.42164429 540.01223633 -32.42164429 540.01223633 -32.85180664 541.04492188 C-35.85203735 548.23039007 -39.07198163 555.23017926 -42.61328125 562.1640625 C-44.35193503 565.71973192 -45.82171879 569.3452414 -47.23828125 573.0390625 C-48 575 -48 575 -49 577 C-48.33226562 577.2578125 -47.66453125 577.515625 -46.9765625 577.78125 C-34.46354431 582.90469052 -22.50303648 589.27089491 -10.58544922 595.62646484 C-5.83930892 598.14787989 -1.07483435 600.63434923 3.6875 603.125 C5.48309898 604.06505438 7.27867429 605.00515398 9.07421875 605.9453125 C10.38279796 606.63023611 11.69138569 607.31514345 13 608 C13 608.66 13 609.32 13 610 C13.70125 610.09152344 14.4025 610.18304687 15.125 610.27734375 C18.59349987 611.14918135 20.98675988 612.63779288 24 614.5625 C25.1547681 615.29325298 26.30972128 616.02371357 27.46484375 616.75390625 C28.05120605 617.12789551 28.63756836 617.50188477 29.24169922 617.88720703 C31.99279005 619.62831672 34.78027268 621.30923611 37.5625 623 C43.1863415 626.4654661 48.71052515 630.05296282 54.17578125 633.76318359 C55.52044444 634.67486235 56.86709714 635.58360837 58.21484375 636.49072266 C75.51371023 648.13661676 75.51371023 648.13661676 82.91015625 654.28515625 C85.71108471 656.5834882 88.64460339 658.68135971 91.6015625 660.7734375 C92.06304688 661.17820312 92.52453125 661.58296875 93 662 C93 662.66 93 663.32 93 664 C94.11604614 664.38828979 94.11604614 664.38828979 95.25463867 664.78442383 C98.08508094 666.03767168 99.71627198 667.30866029 101.92578125 669.44921875 C102.99795898 670.47499023 102.99795898 670.47499023 104.09179688 671.52148438 C104.82462891 672.23626953 105.55746094 672.95105469 106.3125 673.6875 C107.76558002 675.08863793 109.22000112 676.48838644 110.67578125 677.88671875 C111.39008301 678.57419189 112.10438477 679.26166504 112.84033203 679.9699707 C115.5592915 682.52571884 118.36854647 684.96261644 121.21362305 687.37646484 C123.77705039 689.70621635 125.96626548 692.30415144 128.1953125 694.94921875 C130.75743722 697.86072412 133.56609864 700.49419255 136.3984375 703.140625 C138 705 138 705 138.4765625 707.109375 C138.64929687 707.73328125 138.82203125 708.3571875 139 709 C139.58265625 709.2784375 140.1653125 709.556875 140.765625 709.84375 C144.09171103 711.56494137 145.72614211 714.46091699 147.75 717.5 C148.16121094 718.09425781 148.57242187 718.68851563 148.99609375 719.30078125 C152 723.72181271 152 723.72181271 152 726 C152.66 726 153.32 726 154 726 C155.96648306 728.53610926 157.46901107 731.4061622 159.0625 734.1875 C159.79351929 735.46234253 159.79351929 735.46234253 160.53930664 736.76293945 C172.15685759 757.48087379 179.18792069 778.06911816 179.18530273 801.94750977 C179.18747673 804.16377335 179.20562979 806.37952818 179.22460938 808.59570312 C179.27566604 820.67357328 177.66050311 831.26050091 173.5 842.625 C173.15541748 843.56996338 172.81083496 844.51492676 172.45581055 845.48852539 C168.9905833 854.6155972 164.41340109 862.89405817 159 871 C158.5570459 871.66789551 158.1140918 872.33579102 157.65771484 873.02392578 C156.49516975 874.72283368 155.25361755 876.36713681 154 878 C153.34 878 152.68 878 152 878 C151.773125 878.70125 151.54625 879.4025 151.3125 880.125 C148.77453311 885.68435604 144.32478874 889.78069392 140 894 C139.21882813 894.81404297 139.21882813 894.81404297 138.421875 895.64453125 C136.98532701 897.13338075 135.4957947 898.57068507 134 900 C133.34 900 132.68 900 132 900 C132 900.66 132 901.32 132 902 C130.0859375 903.77734375 130.0859375 903.77734375 127.375 905.9375 C125.88226562 907.13246094 125.88226562 907.13246094 124.359375 908.3515625 C123.24026837 909.23524324 122.1204442 910.11801583 121 911 C120.40123047 911.47276367 119.80246094 911.94552734 119.18554688 912.43261719 C115.64205665 915.22903087 112.09140701 918.01606412 108.53222656 920.79248047 C107.11973012 921.9056429 105.72682961 923.04355168 104.3359375 924.18359375 C102.26691516 925.79244891 100.31403889 927.03874527 98 928.25 C94.18464219 930.31218513 90.494676 932.5206706 86.8125 934.8125 C75.8627093 941.57822433 64.89027327 947.75831199 53.13671875 953.03759766 C50.77379734 954.10188424 48.41815111 955.18144038 46.0625 956.26171875 C34.07386102 961.73738081 22.00070971 966.57753248 9.59765625 971.0390625 C7.12408473 971.95409798 4.68845617 972.9331935 2.25 973.9375 C-3.18279587 976.13648881 -8.7295066 977.96417154 -14.296875 979.78515625 C-16.49955762 980.50776627 -18.69891938 981.24084384 -20.890625 981.99609375 C-34.93115183 986.83004656 -49.3077786 990.71059742 -63.75 994.140625 C-66.89688777 994.89881243 -66.89688777 994.89881243 -69.390625 995.97265625 C-73.09139891 997.42969748 -76.8818519 998.28303376 -80.75 999.1875 C-81.64106445 999.39745605 -82.53212891 999.60741211 -83.45019531 999.82373047 C-101.89294487 1004.11267039 -120.44320848 1008.20165947 -139.12109375 1011.32421875 C-143.72573288 1012.12643685 -148.29665912 1013.0612331 -152.875 1014 C-167.68176589 1017.00238483 -182.54825422 1019.16515261 -197.55371094 1020.91040039 C-202.08412611 1021.44931603 -206.54440984 1022.06706624 -211.01171875 1023 C-216.39359493 1024.12381701 -221.79088096 1024.80681807 -227.25 1025.4375 C-228.32427246 1025.56382813 -229.39854492 1025.69015625 -230.50537109 1025.8203125 C-242.7182069 1027.23385946 -254.95125146 1028.43975421 -267.18798828 1029.625 C-270.86510811 1029.98673025 -274.5400159 1030.3657566 -278.21484375 1030.75 C-298.66885387 1032.85620431 -319.15232668 1034.22631955 -339.67132568 1035.52168274 C-344.42675177 1035.8243735 -349.1764009 1036.16248074 -353.92578125 1036.55078125 C-360.79817201 1037.09444794 -367.67300356 1037.34488521 -374.5625 1037.5625 C-375.8613916 1037.6049585 -377.1602832 1037.64741699 -378.49853516 1037.69116211 C-389.00227481 1038.01376492 -399.49247319 1038.11125617 -410 1038 C-409.81937012 1038.61182129 -409.63874023 1039.22364258 -409.45263672 1039.85400391 C-403.88797909 1058.73446894 -398.4401133 1077.63847378 -393.859375 1096.78515625 C-393.09237103 1099.65444838 -392.12058128 1102.25681702 -391 1105 C-388.76754251 1112.7890687 -387.13537666 1120.75854056 -385.44580078 1128.68041992 C-385.28708496 1129.41236572 -385.12836914 1130.14431152 -384.96484375 1130.8984375 C-384.8268335 1131.54474121 -384.68882324 1132.19104492 -384.54663086 1132.85693359 C-384.11343692 1134.55527054 -383.58533407 1136.2293552 -383.02514648 1137.89013672 C-382.04329173 1140.86867109 -381.3024602 1143.79712665 -380.6328125 1146.859375 C-380.38901855 1147.96611572 -380.14522461 1149.07285645 -379.89404297 1150.21313477 C-379.64025879 1151.38030029 -379.38647461 1152.54746582 -379.125 1153.75 C-378.58854515 1156.19140701 -378.05208681 1158.63281326 -377.515625 1161.07421875 C-377.25587891 1162.26192871 -376.99613281 1163.44963867 -376.72851562 1164.67333984 C-375.78715394 1168.97193045 -374.8320687 1173.2673862 -373.875 1177.5625 C-373.56249487 1178.97265511 -373.24999481 1180.38281135 -372.9375 1181.79296875 C-372.27952985 1184.75592545 -371.61101955 1187.71632172 -370.9375 1190.67578125 C-369.21454929 1198.27971609 -367.6285234 1205.84247674 -366.4296875 1213.55078125 C-366.01636024 1216.18048481 -366.01636024 1216.18048481 -365 1219.375 C-363.71424077 1224.03587722 -363.1615651 1228.70747919 -362.5625 1233.5 C-362.08020324 1236.98812517 -362.08020324 1236.98812517 -361.03515625 1240.2265625 C-359.66344142 1245.22685127 -359.07224544 1250.23658452 -358.4375 1255.375 C-358.1900195 1257.36245877 -357.93892014 1259.34947145 -357.68359375 1261.3359375 C-357.52201782 1262.64377197 -357.52201782 1262.64377197 -357.35717773 1263.97802734 C-357.20097953 1265.99012756 -357.20097953 1265.99012756 -356 1267 C-355.72552087 1268.65831923 -355.50845964 1270.32622041 -355.31640625 1271.99609375 C-355.19330078 1273.03056641 -355.07019531 1274.06503906 -354.94335938 1275.13085938 C-354.75483398 1276.76764648 -354.75483398 1276.76764648 -354.5625 1278.4375 C-353.77810643 1285.23972781 -352.87068862 1291.92397365 -351.46166992 1298.62573242 C-350.7008782 1302.53831808 -350.27458431 1306.47406676 -349.875 1310.4375 C-349.79008301 1311.25645752 -349.70516602 1312.07541504 -349.61767578 1312.91918945 C-349.02480061 1318.95709225 -348.75455621 1324.93208416 -349 1331 C-348.34 1331 -347.68 1331 -347 1331 C-346.91435791 1332.18553467 -346.82871582 1333.37106934 -346.74047852 1334.5925293 C-346.42122613 1339.00031658 -346.09782907 1343.40779175 -345.77319336 1347.81518555 C-345.63339381 1349.72102764 -345.49471114 1351.62695201 -345.35717773 1353.53295898 C-345.15904182 1356.27610425 -344.95686175 1359.01892637 -344.75390625 1361.76171875 C-344.6934462 1362.61086349 -344.63298615 1363.46000824 -344.57069397 1364.33488464 C-344.33797654 1367.44022554 -344.11138641 1370.45479565 -343.48754883 1373.50830078 C-342.73613778 1377.34851166 -342.62229884 1381.20167093 -342.4453125 1385.10546875 C-342.40326691 1386.01822067 -342.36122131 1386.9309726 -342.31790161 1387.87138367 C-341.86107161 1398.83696605 -341.84982265 1409.80318616 -341.86962891 1420.77661133 C-341.87502009 1424.32572648 -341.86962985 1427.87471662 -341.86328125 1431.42382812 C-341.85636517 1448.65622288 -342.67348931 1465.56691556 -344.72949219 1482.6784668 C-345.00597378 1484.98738751 -345.2728356 1487.29729848 -345.5390625 1489.60742188 C-345.71298184 1491.08079536 -345.8874392 1492.55410546 -346.0625 1494.02734375 C-346.14169678 1494.71569809 -346.22089355 1495.40405243 -346.30249023 1496.11326599 C-346.88496679 1500.88496679 -346.88496679 1500.88496679 -348 1502 C-348.44872478 1504.81059371 -348.85701041 1507.61906207 -349.25 1510.4375 C-350.70022086 1520.22277228 -353.10438018 1529.55313533 -356 1539 C-356.25652344 1539.85722656 -356.51304688 1540.71445313 -356.77734375 1541.59765625 C-363.21880832 1561.98927487 -373.03358739 1581.70111115 -387 1598 C-387.66 1598 -388.32 1598 -389 1598 C-389.26039062 1598.598125 -389.52078125 1599.19625 -389.7890625 1599.8125 C-391.08108629 1602.14647847 -392.30868813 1603.33973195 -394.375 1605 C-396.48927212 1606.73185699 -398.39928282 1608.41007425 -400.3125 1610.375 C-402 1612 -402 1612 -404 1612 C-404 1612.66 -404 1613.32 -404 1614 C-408.04394586 1616.37913895 -412.10695916 1618.71706266 -416.20605469 1621 C-417.66593641 1621.81378273 -419.11915195 1622.6395154 -420.5703125 1623.46875 C-447.56817386 1637.36863902 -481.48312884 1633.87487426 -509.40698242 1625.11376953 C-512.30051846 1624.15015189 -515.15055132 1623.08631001 -518 1622 C-519.72089844 1621.36384766 -519.72089844 1621.36384766 -521.4765625 1620.71484375 C-547.22537473 1611.03684191 -571.49673887 1597.37812518 -593.90625 1581.48046875 C-595.58532757 1580.29321054 -597.28895102 1579.14069932 -599 1578 C-599 1577.34 -599 1576.68 -599 1576 C-599.55429688 1575.90847656 -600.10859375 1575.81695313 -600.6796875 1575.72265625 C-603.64860604 1574.79799307 -605.6319468 1573.29457024 -608.125 1571.4375 C-609.08921875 1570.72078125 -610.0534375 1570.0040625 -611.046875 1569.265625 C-614.65638889 1566.49642122 -618.20073435 1563.65558188 -621.7109375 1560.76171875 C-623.99250343 1558.93548308 -623.99250343 1558.93548308 -626.6328125 1557.421875 C-629.56017331 1555.66352626 -631.6198509 1553.43965282 -634 1551 C-634.928125 1550.278125 -635.85625 1549.55625 -636.8125 1548.8125 C-637.534375 1548.214375 -638.25625 1547.61625 -639 1547 C-639 1546.34 -639 1545.68 -639 1545 C-639.8353125 1544.88785156 -639.8353125 1544.88785156 -640.6875 1544.7734375 C-643.83974322 1543.71913994 -645.58921772 1541.8961333 -648 1539.625 C-651.52277668 1536.31882085 -651.52277668 1536.31882085 -655.3125 1533.3359375 C-655.869375 1532.89507813 -656.42625 1532.45421875 -657 1532 C-657 1531.34 -657 1530.68 -657 1530 C-657.56203125 1529.7525 -658.1240625 1529.505 -658.703125 1529.25 C-661.39092569 1527.78725133 -663.46405482 1526.03195127 -665.75 1524 C-666.54921875 1523.29875 -667.3484375 1522.5975 -668.171875 1521.875 C-670 1520 -670 1520 -670 1518 C-670.721875 1517.773125 -671.44375 1517.54625 -672.1875 1517.3125 C-675.56432417 1515.73664872 -677.55767039 1513.79123384 -680 1511 C-680 1510.34 -680 1509.68 -680 1509 C-680.57719284 1508.74779694 -681.15438568 1508.49559387 -681.74906921 1508.23574829 C-684.28243484 1506.84494487 -685.97424031 1505.27295226 -688.01489258 1503.22802734 C-688.79282669 1502.45316986 -689.5707608 1501.67831238 -690.37226868 1500.87997437 C-691.20461533 1500.0404422 -692.03696198 1499.20091003 -692.89453125 1498.3359375 C-694.19290169 1497.03687973 -694.19290169 1497.03687973 -695.51750183 1495.71157837 C-697.3497322 1493.8763264 -699.179531 1492.03864413 -701.00708008 1490.19873047 C-703.78616091 1487.40151101 -706.57304149 1484.6122587 -709.36132812 1481.82421875 C-711.14369945 1480.0369272 -712.92561508 1478.24918107 -714.70703125 1476.4609375 C-715.53330521 1475.63355072 -716.35957916 1474.80616394 -717.21089172 1473.95370483 C-729.96239986 1461.09887728 -729.96239986 1461.09887728 -732.06990051 1456.83578491 C-733.28634113 1454.43483388 -734.60180787 1454.1200596 -737 1453 C-738.60546875 1451.40625 -738.60546875 1451.40625 -740.1875 1449.5 C-742.8037346 1446.40707859 -745.45939157 1443.3699886 -748.1875 1440.375 C-751.95722983 1436.19720664 -755.64948841 1431.9586823 -759.3125 1427.6875 C-759.81612061 1427.10081543 -760.31974121 1426.51413086 -760.83862305 1425.90966797 C-762.23270882 1424.27885064 -763.61826811 1422.64128943 -765 1421 C-765.77730469 1420.07832031 -766.55460938 1419.15664062 -767.35546875 1418.20703125 C-769 1416 -769 1416 -769 1414 C-770.32 1413.34 -771.64 1412.68 -773 1412 C-773 1411.34 -773 1410.68 -773 1410 C-773.99 1409.67 -774.98 1409.34 -776 1409 C-777.1875 1406.4375 -777.1875 1406.4375 -778 1404 C-778.66 1404 -779.32 1404 -780 1404 C-781.56668459 1402.33101325 -783.055181 1400.58803244 -784.5 1398.8125 C-785.69109375 1397.36810547 -785.69109375 1397.36810547 -786.90625 1395.89453125 C-789 1393 -789 1393 -790.03125 1390.26171875 C-791.24589932 1387.42590441 -792.26219364 1387.24399395 -795 1386 C-796.75390625 1384.109375 -796.75390625 1384.109375 -798.5625 1381.75 C-799.24957031 1380.863125 -799.93664062 1379.97625 -800.64453125 1379.0625 C-801.42183594 1378.051875 -802.19914063 1377.04125 -803 1376 C-803.93944471 1374.8109476 -804.88094233 1373.623515 -805.82421875 1372.4375 C-806.79955717 1371.20839523 -807.77481818 1369.97922902 -808.75 1368.75 C-809.20963135 1368.17217773 -809.6692627 1367.59435547 -810.14282227 1366.99902344 C-812.94784437 1363.44003998 -815.49479978 1359.77977577 -818 1356 C-818.5775 1355.4225 -819.155 1354.845 -819.75 1354.25 C-820.1625 1353.8375 -820.575 1353.425 -821 1353 C-821 1352.34 -821 1351.68 -821 1351 C-821.66644531 1351.4846875 -822.33289063 1351.969375 -823.01953125 1352.46875 C-823.94121094 1353.1390625 -824.86289062 1353.809375 -825.8125 1354.5 C-826.81023438 1355.22574219 -827.80796875 1355.95148438 -828.8359375 1356.69921875 C-830.90319327 1358.20244548 -832.97088298 1359.70507569 -835.0390625 1361.20703125 C-835.99554687 1361.90183594 -836.95203125 1362.59664062 -837.9375 1363.3125 C-839.25041016 1364.26576172 -839.25041016 1364.26576172 -840.58984375 1365.23828125 C-842.13101452 1366.36480964 -843.64755559 1367.5263617 -845.12890625 1368.73046875 C-847 1370 -847 1370 -850 1370 C-850.33 1370.99 -850.66 1371.98 -851 1373 C-853.1171875 1374.54296875 -853.1171875 1374.54296875 -855.875 1376.1875 C-861.06591222 1379.36311688 -865.93293329 1382.82733981 -870.78515625 1386.49609375 C-873 1388 -873 1388 -875 1388 C-875 1388.66 -875 1389.32 -875 1390 C-877.01953125 1391.4453125 -877.01953125 1391.4453125 -879.8125 1393.125 C-884.96013379 1396.29072827 -889.78690641 1399.73434097 -894.58984375 1403.3984375 C-896.82423092 1404.88320045 -898.38100396 1405.57464101 -901 1406 C-901 1406.66 -901 1407.32 -901 1408 C-902.79296875 1409.40234375 -902.79296875 1409.40234375 -905.1875 1410.9375 C-905.96480469 1411.44152344 -906.74210938 1411.94554687 -907.54296875 1412.46484375 C-909.16656634 1413.47926959 -910.80067702 1414.47708072 -912.4453125 1415.45703125 C-919.26373398 1419.57519101 -925.81805168 1424.14231801 -932.3125 1428.75 C-935.00701808 1430.65075081 -937.68221973 1432.45720618 -940.5625 1434.0625 C-944.22347179 1436.12595683 -947.63419879 1438.4306649 -951.08203125 1440.828125 C-953 1442 -953 1442 -955 1442 C-955 1442.66 -955 1443.32 -955 1444 C-957.64738916 1445.4606285 -958.89448334 1446 -962 1446 C-962.33 1446.99 -962.66 1447.98 -963 1449 C-965.1796875 1450.60546875 -965.1796875 1450.60546875 -967.875 1452.1875 C-968.75929688 1452.71730469 -969.64359375 1453.24710938 -970.5546875 1453.79296875 C-973 1455 -973 1455 -976 1455 C-976 1455.66 -976 1456.32 -976 1457 C-978.5546875 1458.7265625 -978.5546875 1458.7265625 -981.875 1460.625 C-982.96554687 1461.25664063 -984.05609375 1461.88828125 -985.1796875 1462.5390625 C-988 1464 -988 1464 -990 1464 C-990 1464.66 -990 1465.32 -990 1466 C-990.49886719 1466.268125 -990.99773438 1466.53625 -991.51171875 1466.8125 C-996.02447813 1469.27547819 -1000.44069385 1471.85695072 -1004.8125 1474.5625 C-1010.73956275 1478.22560758 -1016.67173097 1481.87958856 -1022.625 1485.5 C-1023.50260986 1486.04084229 -1024.38021973 1486.58168457 -1025.28442383 1487.13891602 C-1026.52421997 1487.88999634 -1026.52421997 1487.88999634 -1027.7890625 1488.65625 C-1028.52850098 1489.10806641 -1029.26793945 1489.55988281 -1030.02978516 1490.02539062 C-1032 1491 -1032 1491 -1035 1491 C-1035 1491.66 -1035 1492.32 -1035 1493 C-1036.60416667 1493.875 -1038.20833333 1494.75 -1039.8125 1495.625 C-1041.31876953 1496.44677734 -1041.31876953 1496.44677734 -1042.85546875 1497.28515625 C-1044.85767056 1498.37704022 -1046.86023533 1499.46825907 -1048.86328125 1500.55859375 C-1058.99155492 1505.97437871 -1058.99155492 1505.97437871 -1068.875 1511.8125 C-1071 1513 -1071 1513 -1074 1513 C-1074 1513.66 -1074 1514.32 -1074 1515 C-1079.625 1518 -1079.625 1518 -1083 1518 C-1083 1518.66 -1083 1519.32 -1083 1520 C-1084.6250651 1520.81253255 -1086.25013809 1521.62504935 -1087.87524414 1522.4375 C-1089.31206012 1523.15599053 -1090.74874274 1523.87474779 -1092.18530273 1524.59375 C-1095.8197564 1526.41235815 -1099.45577735 1528.22755178 -1103.09765625 1530.03125 C-1109.55873998 1533.23679197 -1115.97162166 1536.49977679 -1122.3125 1539.9375 C-1133.65358978 1546.06736738 -1145.39999611 1551.41978992 -1157.15625 1556.69921875 C-1159.39635053 1557.72388012 -1161.62182678 1558.76906749 -1163.84375 1559.83203125 C-1173.07126412 1564.24137458 -1182.37563909 1568.31298725 -1191.86181641 1572.13232422 C-1194.03238437 1573.01314159 -1196.19472197 1573.91178391 -1198.35546875 1574.81640625 C-1206.13085436 1578.06699428 -1213.91883108 1581.11289006 -1221.87890625 1583.88671875 C-1224.58409752 1584.8516493 -1227.22566307 1585.89353816 -1229.875 1587 C-1234.61171398 1588.92692902 -1239.45306613 1590.44321008 -1244.34106445 1591.92919922 C-1248.3103447 1593.14141034 -1252.24890531 1594.41420475 -1256.171875 1595.76953125 C-1265.38612143 1598.94737777 -1274.34481656 1601.77970458 -1283.96875 1603.39453125 C-1286.93917634 1603.88799588 -1286.93917634 1603.88799588 -1289.35571289 1604.96386719 C-1324.87977722 1618.88355411 -1376.74088311 1618.83234991 -1412.11328125 1604.12109375 C-1432.8791497 1594.8066945 -1447.5086576 1578.24630233 -1456.09277344 1557.38964844 C-1464.46251674 1535.34361844 -1464.10612271 1508.92389651 -1460 1486 C-1459.8146167 1484.89760986 -1459.8146167 1484.89760986 -1459.62548828 1483.77294922 C-1457.25316199 1469.81216844 -1453.36639617 1456.45432815 -1449 1443 C-1448.69094727 1442.04254883 -1448.38189453 1441.08509766 -1448.06347656 1440.09863281 C-1447.15412853 1437.29234472 -1446.23628442 1434.48906697 -1445.3125 1431.6875 C-1444.90294067 1430.44432007 -1444.90294067 1430.44432007 -1444.48510742 1429.17602539 C-1442.53538914 1423.35980698 -1440.32680582 1417.67494072 -1438 1412 C-1437.57976562 1410.96230469 -1437.15953125 1409.92460938 -1436.7265625 1408.85546875 C-1433.67947486 1401.47546571 -1430.40801467 1394.21943383 -1427 1387 C-1426.59974609 1386.14905762 -1426.19949219 1385.29811523 -1425.78710938 1384.42138672 C-1420.67254195 1373.56509957 -1415.4868821 1362.78607523 -1409.74609375 1352.24609375 C-1408.17148506 1349.31880109 -1406.6974999 1346.3664998 -1405.25 1343.375 C-1402.34431324 1337.49941241 -1399.12240525 1331.81625832 -1395.875 1326.125 C-1395.35969727 1325.22056152 -1394.84439453 1324.31612305 -1394.31347656 1323.38427734 C-1391.68539414 1318.8093727 -1388.94225185 1314.38167248 -1386 1310 C-1385.01931699 1308.24144539 -1384.06017459 1306.47067188 -1383.125 1304.6875 C-1380.36812285 1299.56857483 -1377.2992121 1294.7817152 -1374 1290 C-1370.99468984 1285.6105648 -1368.08383234 1281.25085982 -1365.5625 1276.5625 C-1362.39312445 1270.72310389 -1358.49505965 1265.41610095 -1354.58203125 1260.05859375 C-1352.19237933 1256.77190327 -1350.08125181 1253.46626865 -1348.109375 1249.90234375 C-1346.30726336 1246.81210302 -1344.28009088 1243.87527291 -1342.26953125 1240.91796875 C-1340.96573595 1239.03210716 -1340.96573595 1239.03210716 -1340 1237 C-1339.34 1237 -1338.68 1237 -1338 1237 C-1337.73960937 1236.27296875 -1337.47921875 1235.5459375 -1337.2109375 1234.796875 C-1335.96148834 1231.91105049 -1334.51682472 1229.7564682 -1332.625 1227.25 C-1329.11567481 1222.52663799 -1325.69290643 1217.75395827 -1322.3125 1212.9375 C-1317.89460523 1206.65801686 -1313.43414182 1200.41084215 -1308.9375 1194.1875 C-1308.38940674 1193.42880615 -1307.84131348 1192.6701123 -1307.27661133 1191.88842773 C-1303.2174723 1186.27974713 -1303.2174723 1186.27974713 -1301.37329102 1183.9074707 C-1299.93789189 1181.91373321 -1299.42826759 1180.3982985 -1299 1178 C-1298.34 1178 -1297.68 1178 -1297 1178 C-1296.9175 1177.0925 -1296.835 1176.185 -1296.75 1175.25 C-1295.8924306 1171.53386595 -1294.80732897 1170.46704667 -1292 1168 C-1291.34 1167.01 -1290.68 1166.02 -1290 1165 C-1289.34 1165 -1288.68 1165 -1288 1165 C-1287.74347656 1164.27039062 -1287.48695313 1163.54078125 -1287.22265625 1162.7890625 C-1285.93936329 1159.86167855 -1284.47121941 1157.83189739 -1282.4375 1155.375 C-1281.72207031 1154.50230469 -1281.00664063 1153.62960937 -1280.26953125 1152.73046875 C-1279.52058594 1151.82941406 -1278.77164062 1150.92835937 -1278 1150 C-1276.53992163 1148.2306052 -1275.0816096 1146.45975147 -1273.625 1144.6875 C-1272.88378906 1143.78773437 -1272.14257812 1142.88796875 -1271.37890625 1141.9609375 C-1269.64187267 1139.7989154 -1267.94641556 1137.62730714 -1266.27734375 1135.4140625 C-1265.59841064 1134.51554565 -1265.59841064 1134.51554565 -1264.90576172 1133.59887695 C-1264.02276959 1132.42460334 -1263.1453052 1131.24614896 -1262.27392578 1130.06323242 C-1261.22871961 1128.67293492 -1260.11953833 1127.33117129 -1259 1126 C-1258.34 1126 -1257.68 1126 -1257 1126 C-1256.78859375 1125.31421875 -1256.5771875 1124.6284375 -1256.359375 1123.921875 C-1254.57743521 1120.09172855 -1252.06008722 1117.36919681 -1249.25 1114.25 C-1245.20076847 1109.65790181 -1241.46819704 1105.11747846 -1238.28125 1099.8671875 C-1236.74761584 1097.63219625 -1234.91872238 1095.91524012 -1233 1094 C-1231.32668922 1091.93280471 -1229.68470736 1089.85628899 -1228.0625 1087.75 C-1223.35119541 1081.68454798 -1218.5230225 1075.72514736 -1213.65136719 1069.78808594 C-1209.70559524 1064.94803415 -1206.02467004 1059.99309556 -1202.48828125 1054.84375 C-1201.99714844 1054.2353125 -1201.50601562 1053.626875 -1201 1053 C-1200.34 1053 -1199.68 1053 -1199 1053 C-1198.76925781 1052.46890625 -1198.53851562 1051.9378125 -1198.30078125 1051.390625 C-1196.58940719 1048.245397 -1194.4156833 1045.53689663 -1192.1875 1042.75 C-1191.70611572 1042.1422876 -1191.22473145 1041.5345752 -1190.72875977 1040.90844727 C-1187.00363128 1036.21999543 -1183.22207467 1031.57797596 -1179.4375 1026.9375 C-1175.320859 1021.88052508 -1171.21321901 1016.81731608 -1167.1875 1011.6875 C-1166.37667969 1010.66011719 -1165.56585937 1009.63273437 -1164.73046875 1008.57421875 C-1162.72105354 1006.10200915 -1162.72105354 1006.10200915 -1163 1003 C-1164.04994141 1002.86464844 -1164.04994141 1002.86464844 -1165.12109375 1002.7265625 C-1168.61647562 1001.84441728 -1171.02996968 1000.32153124 -1174.0625 998.375 C-1175.21409565 997.64595238 -1176.36645718 996.91811332 -1177.51953125 996.19140625 C-1178.09912598 995.82418457 -1178.6787207 995.45696289 -1179.27587891 995.07861328 C-1185.13050034 991.4159515 -1191.1517894 988.01572799 -1197.19921875 984.68359375 C-1202.38331696 981.81056371 -1207.47108159 978.78333864 -1212.5625 975.75 C-1219.14673957 971.84079724 -1225.74657381 967.97388639 -1232.4375 964.25 C-1238.19104734 961.04776654 -1243.85423798 957.72042791 -1249.48681641 954.31030273 C-1253.72742385 951.74787164 -1258.00352527 949.25808672 -1262.3125 946.8125 C-1268.75854995 943.15079559 -1275.11858017 939.36475658 -1281.44921875 935.5078125 C-1286.71002797 932.31994381 -1292.0356213 929.30143201 -1297.45703125 926.39453125 C-1300.01447671 924.99206116 -1302.50413 923.50921568 -1305 922 C-1306.90548507 920.87591049 -1308.81405039 919.75713761 -1310.72241211 918.63793945 C-1313.7323855 916.8719655 -1316.7392249 915.10069526 -1319.74560547 913.32861328 C-1321.1946733 912.47461424 -1322.64418129 911.62136138 -1324.09423828 910.76904297 C-1331.10915669 906.6401061 -1337.99310021 902.43376574 -1344.609375 897.6796875 C-1348.07526252 895.24450509 -1351.66812581 893.02272378 -1355.25390625 890.76953125 C-1358.85301428 888.45033361 -1362.33432061 885.98171646 -1365.80859375 883.48046875 C-1367.81787548 882.12303956 -1369.80599271 881.02453644 -1372 880 C-1372 879.34 -1372 878.68 -1372 878 C-1372.928125 877.731875 -1373.85625 877.46375 -1374.8125 877.1875 C-1377.88553313 876.04264452 -1378.87642013 875.31663259 -1381 873 C-1383.09989652 871.82425289 -1383.09989652 871.82425289 -1385 871 C-1385 870.34 -1385 869.68 -1385 869 C-1385.886875 868.7525 -1386.77375 868.505 -1387.6875 868.25 C-1391.16960953 866.9359964 -1393.21145391 865.43104018 -1396 863 C-1398.62377031 860.87599546 -1401.18948109 858.87367927 -1404 857 C-1404 856.34 -1404 855.68 -1404 855 C-1404.639375 854.896875 -1405.27875 854.79375 -1405.9375 854.6875 C-1406.618125 854.460625 -1407.29875 854.23375 -1408 854 C-1408.33 853.01 -1408.66 852.02 -1409 851 C-1410.32331796 850.62889562 -1411.65920357 850.30191693 -1413 850 C-1415.140625 848.66015625 -1415.140625 848.66015625 -1417.25 847.0625 C-1417.95640625 846.53785156 -1418.6628125 846.01320313 -1419.390625 845.47265625 C-1420.18726563 844.74369141 -1420.18726563 844.74369141 -1421 844 C-1421 843.34 -1421 842.68 -1421 842 C-1421.804375 841.731875 -1422.60875 841.46375 -1423.4375 841.1875 C-1424.7059375 840.5996875 -1424.7059375 840.5996875 -1426 840 C-1426.33 839.01 -1426.66 838.02 -1427 837 C-1427.58652344 836.85433594 -1428.17304687 836.70867188 -1428.77734375 836.55859375 C-1431.80909593 835.79665955 -1433.29424753 834.18490883 -1435.5625 832.0625 C-1437.99990424 829.7977281 -1440.22357593 827.85094938 -1443 826 C-1443 825.34 -1443 824.68 -1443 824 C-1443.53625 823.773125 -1444.0725 823.54625 -1444.625 823.3125 C-1447.82460161 821.54429911 -1450.29037223 819.46329797 -1453 817 C-1453 816.34 -1453 815.68 -1453 815 C-1453.53625 814.773125 -1454.0725 814.54625 -1454.625 814.3125 C-1457.82460161 812.54429911 -1460.29037223 810.46329797 -1463 808 C-1463 807.34 -1463 806.68 -1463 806 C-1464.32 805.34 -1465.64 804.68 -1467 804 C-1467 803.34 -1467 802.68 -1467 802 C-1467.556875 801.773125 -1468.11375 801.54625 -1468.6875 801.3125 C-1471.66159588 799.62449964 -1473.72008865 797.53323483 -1476 795 C-1476 794.34 -1476 793.68 -1476 793 C-1476.556875 792.773125 -1477.11375 792.54625 -1477.6875 792.3125 C-1480.66159588 790.62449964 -1482.72008865 788.53323483 -1485 786 C-1485 785.34 -1485 784.68 -1485 784 C-1485.556875 783.79375 -1486.11375 783.5875 -1486.6875 783.375 C-1489.97012371 781.42316968 -1491.70673246 779.05769006 -1494 776 C-1494 775.34 -1494 774.68 -1494 774 C-1494.556875 773.79375 -1495.11375 773.5875 -1495.6875 773.375 C-1498.97012371 771.42316968 -1500.70673246 769.05769006 -1503 766 C-1503 765.34 -1503 764.68 -1503 764 C-1503.66 764 -1504.32 764 -1505 764 C-1506.7265625 762.1015625 -1506.7265625 762.1015625 -1508.625 759.625 C-1509.25664063 758.81289063 -1509.88828125 758.00078125 -1510.5390625 757.1640625 C-1512 755 -1512 755 -1512 753 C-1512.66 753 -1513.32 753 -1514 753 C-1515.5234375 751.19140625 -1515.5234375 751.19140625 -1517.375 748.5625 C-1518.43847656 747.06009766 -1518.43847656 747.06009766 -1519.5234375 745.52734375 C-1520.1127002 744.68598877 -1520.1127002 744.68598877 -1520.71386719 743.82763672 C-1522.10118877 741.85620745 -1523.50643607 739.89838394 -1524.9140625 737.94140625 C-1532.81527744 726.91724619 -1540.09749273 715.73166892 -1546.49609375 703.75390625 C-1548.65025571 699.80927201 -1550.96727414 695.96503394 -1553.2890625 692.1171875 C-1562.30629743 675.6885266 -1569.12690641 657.08588892 -1573.53710938 638.90039062 C-1573.96554804 637.14144202 -1574.42669225 635.39054679 -1574.890625 633.640625 C-1584.01773535 597.66907245 -1581.35762946 555.36673014 -1565.25 521.6875 C-1564.90437012 520.96054932 -1564.55874023 520.23359863 -1564.20263672 519.48461914 C-1557.98733567 506.59304653 -1557.98733567 506.59304653 -1554 501 C-1553.34 501 -1552.68 501 -1552 501 C-1551.731875 500.071875 -1551.46375 499.14375 -1551.1875 498.1875 C-1549.99633817 494.99017087 -1549.34497022 494.25204599 -1547 492 C-1545.64909222 490.36856097 -1544.31710258 488.72135079 -1543 487.0625 C-1542.319375 486.20785156 -1541.63875 485.35320312 -1540.9375 484.47265625 C-1539.71036018 482.90656853 -1538.5176184 481.3123743 -1537.375 479.68359375 C-1536.92125 479.12800781 -1536.4675 478.57242187 -1536 478 C-1535.34 478 -1534.68 478 -1534 478 C-1533.77183594 477.44699219 -1533.54367187 476.89398437 -1533.30859375 476.32421875 C-1523.32286427 458.58837087 -1497.37991755 443.3293888 -1480 434 C-1479.30825684 433.62278809 -1478.61651367 433.24557617 -1477.90380859 432.85693359 C-1468.26135501 427.60653875 -1458.54923823 422.7251727 -1448.43359375 418.453125 C-1445.73687112 417.31184989 -1443.08727034 416.11846764 -1440.4375 414.875 C-1435.35292837 412.59672079 -1430.04163393 410.95523635 -1424.74609375 409.24609375 C-1422.14156693 408.37972873 -1419.59482347 407.47994582 -1417.03515625 406.5 C-1413.0733165 404.99736534 -1409.06833684 403.74238978 -1405 402.5625 C-1404.26579834 402.34859619 -1403.53159668 402.13469238 -1402.77514648 401.91430664 C-1395.23121291 399.74123354 -1387.64007117 397.80323551 -1380 396 C-1379.26604004 395.82581543 -1378.53208008 395.65163086 -1377.77587891 395.47216797 C-1368.99067102 393.40384688 -1360.27828596 391.58960303 -1351.30859375 390.4921875 C-1348.74568377 390.11092816 -1346.32378788 389.63027896 -1343.80859375 389.0390625 C-1338.45673352 387.81728952 -1333.07193269 387.14781481 -1327.625 386.5 C-1326.04235352 386.30881592 -1326.04235352 386.30881592 -1324.42773438 386.11376953 C-1322.28710313 385.85734648 -1320.14615349 385.60356651 -1318.00488281 385.35253906 C-1316.14441521 385.13426516 -1314.28430631 384.91287915 -1312.42480469 384.68652344 C-1287.74357883 381.68653925 -1262.90914909 381.81163756 -1238.08496094 381.81469727 C-1234.62234253 381.81477837 -1231.15985687 381.80784198 -1227.69726562 381.79418945 C-1199.12723349 381.68357708 -1170.9660068 382.84960608 -1142.55444336 386.12231445 C-1139.77091065 386.44228068 -1136.9862116 386.75009512 -1134.20117188 387.05664062 C-1123.18927226 388.28742379 -1112.25257877 389.79907843 -1101.32229614 391.61471558 C-1098.97279848 392.00451291 -1096.62222091 392.38707888 -1094.27124023 392.76782227 C-1090.38799893 393.39779083 -1086.50626938 394.03646054 -1082.62524414 394.67993164 C-1081.06395631 394.93819597 -1079.50242582 395.19499695 -1077.94067383 395.45043945 C-1075.62266922 395.82964503 -1073.30541624 396.21317689 -1070.98828125 396.59765625 C-1070.30171951 396.70916519 -1069.61515778 396.82067413 -1068.90779114 396.93556213 C-1064.19256317 397.72492323 -1059.62497451 398.80817497 -1055 400 C-1052.73256958 400.47488186 -1050.4616028 400.93317431 -1048.1875 401.375 C-1042.1185264 402.57418536 -1036.05618688 403.80022966 -1030 405.0625 C-1029.21133545 405.22476074 -1028.4226709 405.38702148 -1027.61010742 405.55419922 C-1023.00494367 406.51819588 -1018.52501261 407.70305223 -1014 409 C-1008.81837867 410.27706865 -1003.62009485 411.485289 -998.42382812 412.70117188 C-992.7393365 414.04740823 -987.13073519 415.50382769 -981.54858398 417.2253418 C-976.62189384 418.72284039 -971.64944246 420.06237631 -966.6875 421.4375 C-955.9022188 424.44287222 -945.18396412 427.55814271 -934.578125 431.15234375 C-931.04526916 432.31390393 -927.49055352 433.40207116 -923.9375 434.5 C-918.55313558 436.16698975 -913.2420249 437.92503181 -908 440 C-908.41060361 432.86846362 -908.89484222 425.76679356 -909.68432617 418.66699219 C-911.08651387 405.9729342 -911.69340157 393.24574984 -912.30249023 380.49365234 C-912.341716 379.700466 -912.38094177 378.90727966 -912.4213562 378.09005737 C-912.49538942 376.58805064 -912.5660651 375.08587339 -912.63284302 373.58352661 C-912.812731 369.77306475 -912.812731 369.77306475 -913.4981842 366.03096008 C-914.00842769 363.96589125 -914.19329424 362.09388147 -914.29443359 359.97143555 C-914.33315582 359.17776077 -914.37187805 358.384086 -914.41177368 357.56636047 C-914.44862274 356.7027037 -914.4854718 355.83904694 -914.5234375 354.94921875 C-914.56455658 354.02936691 -914.60567566 353.10951508 -914.64804077 352.16178894 C-915.16100488 340.05026217 -915.40973829 327.93240491 -915.625 315.8125 C-915.64745789 314.57675232 -915.66991577 313.34100464 -915.6930542 312.06781006 C-915.98081923 295.57768058 -916.05451425 279.11276158 -915.625 262.625 C-915.60367004 261.80069489 -915.58234009 260.97638977 -915.56036377 260.12710571 C-915.31962238 251.27566832 -914.95466477 242.43005703 -914.5234375 233.5859375 C-914.48658844 232.78491608 -914.44973938 231.98389465 -914.41177368 231.15859985 C-914.22939768 227.63587339 -913.86598273 224.40683806 -913 221 C-912.74926276 218.39272728 -912.53414546 215.79557195 -912.3515625 213.18359375 C-912.23440344 211.60885427 -912.11679196 210.0341484 -911.9987793 208.45947266 C-911.90782486 207.229133 -911.90782486 207.229133 -911.81503296 205.97393799 C-909.86607891 179.96054999 -909.86607891 179.96054999 -907.50830078 167.65332031 C-906.87009187 164.32188208 -906.26359895 160.98492467 -905.65234375 157.6484375 C-900.4315392 129.43196046 -894.00893414 100.77823003 -881 75 C-879.69257765 72.23646 -878.40979296 69.4616172 -877.125 66.6875 C-876.5239876 65.39948275 -875.92247656 64.11169798 -875.3203125 62.82421875 C-874.88460937 61.89222656 -874.44890625 60.96023437 -874 60 C-873.34 60 -872.68 60 -872 60 C-871.83371094 59.13955078 -871.83371094 59.13955078 -871.6640625 58.26171875 C-866.53927422 40.80729279 -845.68415627 23.23377632 -830.52734375 14.58984375 C-808.2253949 3.03241542 -783.20024377 2.45648196 -759.2421875 9.03125 C-737.47047519 16.3711439 -718.51071769 29.38676765 -700.625 43.5 C-699.96411377 44.01643066 -699.30322754 44.53286133 -698.62231445 45.06494141 C-697.04211381 46.32884939 -695.51517928 47.6588329 -694 49 C-694 49.66 -694 50.32 -694 51 C-692.68 51.66 -691.36 52.32 -690 53 C-690 53.66 -690 54.32 -690 55 C-689.278125 55.226875 -688.55625 55.45375 -687.8125 55.6875 C-684.43567583 57.26335128 -682.44232961 59.20876616 -680 62 C-680 62.66 -680 63.32 -680 64 C-679.443125 64.226875 -678.88625 64.45375 -678.3125 64.6875 C-675.33840412 66.37550036 -673.27991135 68.46676517 -671 71 C-671 71.66 -671 72.32 -671 73 C-670.01 73.33 -669.02 73.66 -668 74 C-663 79.46511628 -663 79.46511628 -663 82 C-662.1646875 82.309375 -662.1646875 82.309375 -661.3125 82.625 C-658.02987629 84.57683032 -656.29326754 86.94230994 -654 90 C-654 90.66 -654 91.32 -654 92 C-653.01 92.33 -652.02 92.66 -651 93 C-649.0625 95.14453125 -649.0625 95.14453125 -647 97.8125 C-646.319375 98.68519531 -645.63875 99.55789063 -644.9375 100.45703125 C-644.298125 101.29621094 -643.65875 102.13539063 -643 103 C-642.13375 104.08861328 -642.13375 104.08861328 -641.25 105.19921875 C-640 107 -640 107 -640 109 C-639.34 109 -638.68 109 -638 109 C-636.4765625 110.84375 -636.4765625 110.84375 -634.625 113.5 C-631.71265284 117.61309788 -628.75407988 121.67250748 -625.70629883 125.6862793 C-620.97248344 131.92371455 -616.37205301 138.23336799 -611.9375 144.6875 C-611.48463623 145.34645264 -611.03177246 146.00540527 -610.56518555 146.68432617 C-604 156.31865818 -604 156.31865818 -604 159 C-603.34 159 -602.68 159 -602 159 C-600.2734375 161.5546875 -600.2734375 161.5546875 -598.375 164.875 C-597.74335937 165.96554687 -597.11171875 167.05609375 -596.4609375 168.1796875 C-595 171 -595 171 -595 173 C-594.34 173 -593.68 173 -593 173 C-591.87084961 174.49707031 -591.87084961 174.49707031 -590.65234375 176.578125 C-589.99202148 177.70154297 -589.99202148 177.70154297 -589.31835938 178.84765625 C-588.86267578 179.64042969 -588.40699219 180.43320312 -587.9375 181.25 C-587.47794922 182.02730469 -587.01839844 182.80460938 -586.54492188 183.60546875 C-584.53303394 187.0620163 -582.8185774 190.05358363 -582 194 C-581.34 194 -580.68 194 -580 194 C-575.65673454 199.91312044 -572.58590711 206.76169975 -569.3671875 213.32421875 C-567.79977139 216.39187599 -565.93778926 219.15387202 -564 222 C-562.59376877 224.47588908 -561.24654196 226.9802595 -559.8984375 229.48828125 C-558.41928303 232.22441267 -556.9238248 234.94876148 -555.4140625 237.66796875 C-550.70219593 246.16159905 -546.08707081 254.66169619 -541.80859375 263.3828125 C-539.63295614 267.78373147 -537.30615561 272.10404469 -535 276.4375 C-530.71713884 284.50270203 -526.75671158 292.67801309 -523 301 C-520.3589199 298.92235032 -517.87906699 296.87906699 -515.5 294.5 C-513.11853328 292.11853328 -510.62660503 290.10128402 -508 288 C-506.32897985 286.33769822 -504.66312435 284.67020147 -503 283 C-500.83346816 280.89393268 -498.64009273 278.81825738 -496.4375 276.75 C-495.87353516 276.20859375 -495.30957031 275.6671875 -494.72851562 275.109375 C-491.81727658 272.38540865 -489.80195923 270.94643156 -486 270 C-484.71563266 268.0162233 -484.71563266 268.0162233 -484 266 C-483.34 266 -482.68 266 -482 266 C-481.814375 265.443125 -481.62875 264.88625 -481.4375 264.3125 C-479.6480141 261.43376182 -477.55419533 260.15036097 -474.78125 258.26953125 C-472.23043446 256.45151579 -470.18831678 254.23920786 -468 252 C-453.92639138 239 -453.92639138 239 -451 239 C-450.67 238.01 -450.34 237.02 -450 236 C-448.66666667 235.33333333 -447.33333333 234.66666667 -446 234 C-444.8321259 232.84057345 -443.66675403 231.67848435 -442.51611328 230.50195312 C-439.57626415 227.58956152 -436.43332857 224.90271166 -433.3125 222.1875 C-432.63638672 221.59001953 -431.96027344 220.99253906 -431.26367188 220.37695312 C-430.29204102 219.53100586 -430.29204102 219.53100586 -429.30078125 218.66796875 C-428.71466064 218.15516357 -428.12854004 217.6423584 -427.5246582 217.11401367 C-426 216 -426 216 -424 216 C-424 215.34 -424 214.68 -424 214 C-423.195625 213.731875 -422.39125 213.46375 -421.5625 213.1875 C-420.716875 212.795625 -419.87125 212.40375 -419 212 C-418.67 211.01 -418.34 210.02 -418 209 C-416.66666667 208.66666667 -415.33333333 208.33333333 -414 208 C-413.67 207.01 -413.34 206.02 -413 205 C-410.85546875 203.0625 -410.85546875 203.0625 -408.1875 201 C-407.31480469 200.319375 -406.44210937 199.63875 -405.54296875 198.9375 C-404.70378906 198.298125 -403.86460938 197.65875 -403 197 C-402.27425781 196.4225 -401.54851562 195.845 -400.80078125 195.25 C-399 194 -399 194 -397 194 C-396.67 193.01 -396.34 192.02 -396 191 C-394.66666667 190.66666667 -393.33333333 190.33333333 -392 190 C-391.67 189.01 -391.34 188.02 -391 187 C-388.4375 185.8125 -388.4375 185.8125 -386 185 C-386 184.34 -386 183.68 -386 183 C-384.15905369 181.43733627 -382.31468257 179.99400617 -380.375 178.5625 C-379.16995137 177.65577337 -377.96554501 176.74819265 -376.76171875 175.83984375 C-376.13700684 175.37046387 -375.51229492 174.90108398 -374.86865234 174.41748047 C-371.94069496 172.19645609 -369.0666525 169.90867922 -366.1875 167.625 C-360.50165741 163.1347077 -354.73332165 158.76355934 -348.92211914 154.43701172 C-345.64572569 151.99524314 -342.38740471 149.53609164 -339.16796875 147.01953125 C-338.56927979 146.55232666 -337.97059082 146.08512207 -337.35375977 145.60375977 C-336.22730687 144.72165535 -335.1039275 143.83560742 -333.98413086 142.94506836 C-330.21973485 140 -330.21973485 140 -328 140 C-328 139.34 -328 138.68 -328 138 C-326.68463632 137.06539949 -325.3579297 136.14446294 -323.9921875 135.28515625 C-320.62980736 133.11609141 -317.4166298 130.73078149 -314.171875 128.390625 C-312 127 -312 127 -310 127 C-310 126.34 -310 125.68 -310 125 C-308.27956284 123.72093154 -306.49491932 122.52789009 -304.6875 121.375 C-300.62945624 118.73750831 -296.64384383 116.06195092 -292.75 113.1875 C-262.52608268 91 -262.52608268 91 -258 91 C-258 90.34 -258 89.68 -258 89 C-255.4453125 87.2734375 -255.4453125 87.2734375 -252.125 85.375 C-251.03445313 84.74335938 -249.94390625 84.11171875 -248.8203125 83.4609375 C-246 82 -246 82 -244 82 C-244 81.34 -244 80.68 -244 80 C-243.03578125 79.45730469 -242.0715625 78.91460937 -241.078125 78.35546875 C-239.80200123 77.6329575 -238.52596412 76.91029317 -237.25 76.1875 C-236.29867188 75.65286133 -236.29867188 75.65286133 -235.328125 75.10742188 C-232.66084586 73.59318528 -230.16044639 72.1247609 -227.734375 70.23828125 C-226 69 -226 69 -223 69 C-223 68.34 -223 67.68 -223 67 C-222.46632813 66.70867187 -221.93265625 66.41734375 -221.3828125 66.1171875 C-217.26101507 63.8494858 -213.19630852 61.52496099 -209.1875 59.0625 C-204.48291648 56.20588278 -199.62611216 53.77081625 -194.6640625 51.39453125 C-192.20577158 50.10771328 -190.20620145 48.66555129 -188 47 C-186.26999882 46.06612994 -184.51720792 45.17389045 -182.75 44.3125 C-181.68394531 43.78914063 -180.61789062 43.26578125 -179.51953125 42.7265625 C-178.35808594 42.15679687 -177.19664063 41.58703125 -176 41 C-174.77390243 40.38447725 -173.54866159 39.7672454 -172.32421875 39.1484375 C-156.21473007 31.00953299 -140.03921764 23.37014021 -123.19775391 16.85498047 C-121.27563084 16.10722719 -119.36167712 15.33854291 -117.44921875 14.56640625 C-109.45970566 11.37259093 -101.33156743 8.92183929 -93.06054688 6.58642578 C-91.13543558 6.03854458 -89.21590205 5.47116928 -87.296875 4.90234375 C-59.23524226 -3.37143362 -28.76881322 -6.70397877 0 0 Z " fill="#000000" transform="translate(1727,184)"/>
<path d="M0 0 C-4.67201291 2.06382132 -9.32687131 3.8485485 -14.1875 5.4375 C-15.52219508 5.87481796 -16.8568299 6.31231984 -18.19140625 6.75 C-19.16811279 7.06904297 -19.16811279 7.06904297 -20.16455078 7.39453125 C-21.74809034 7.91690131 -23.32582407 8.45681152 -24.90234375 9 C-38.93864922 13.83316114 -53.31194076 17.71158593 -67.75 21.140625 C-70.89688777 21.89881243 -70.89688777 21.89881243 -73.390625 22.97265625 C-77.09139891 24.42969748 -80.8818519 25.28303376 -84.75 26.1875 C-85.64106445 26.39745605 -86.53212891 26.60741211 -87.45019531 26.82373047 C-105.89294487 31.11267039 -124.44320848 35.20165947 -143.12109375 38.32421875 C-147.72573288 39.12643685 -152.29665912 40.0612331 -156.875 41 C-171.68176589 44.00238483 -186.54825422 46.16515261 -201.55371094 47.91040039 C-206.08412611 48.44931603 -210.54440984 49.06706624 -215.01171875 50 C-220.39359493 51.12381701 -225.79088096 51.80681807 -231.25 52.4375 C-232.32427246 52.56382813 -233.39854492 52.69015625 -234.50537109 52.8203125 C-246.7182069 54.23385946 -258.95125146 55.43975421 -271.18798828 56.625 C-274.86510811 56.98673025 -278.5400159 57.3657566 -282.21484375 57.75 C-302.66885387 59.85620431 -323.15232668 61.22631955 -343.67132568 62.52168274 C-348.42675177 62.8243735 -353.1764009 63.16248074 -357.92578125 63.55078125 C-364.79817201 64.09444794 -371.67300356 64.34488521 -378.5625 64.5625 C-379.8613916 64.6049585 -381.1602832 64.64741699 -382.49853516 64.69116211 C-393.00227481 65.01376492 -403.49247319 65.11125617 -414 65 C-413.81937012 65.61182129 -413.63874023 66.22364258 -413.45263672 66.85400391 C-407.88797909 85.73446894 -402.4401133 104.63847378 -397.859375 123.78515625 C-397.09237103 126.65444838 -396.12058128 129.25681702 -395 132 C-392.76754251 139.7890687 -391.13537666 147.75854056 -389.44580078 155.68041992 C-389.28708496 156.41236572 -389.12836914 157.14431152 -388.96484375 157.8984375 C-388.8268335 158.54474121 -388.68882324 159.19104492 -388.54663086 159.85693359 C-388.11343692 161.55527054 -387.58533407 163.2293552 -387.02514648 164.89013672 C-386.04329173 167.86867109 -385.3024602 170.79712665 -384.6328125 173.859375 C-384.38901855 174.96611572 -384.14522461 176.07285645 -383.89404297 177.21313477 C-383.64025879 178.38030029 -383.38647461 179.54746582 -383.125 180.75 C-382.58854515 183.19140701 -382.05208681 185.63281326 -381.515625 188.07421875 C-381.25587891 189.26192871 -380.99613281 190.44963867 -380.72851562 191.67333984 C-379.78715394 195.97193045 -378.8320687 200.2673862 -377.875 204.5625 C-377.56249487 205.97265511 -377.24999481 207.38281135 -376.9375 208.79296875 C-376.27952985 211.75592545 -375.61101955 214.71632172 -374.9375 217.67578125 C-373.21454929 225.27971609 -371.6285234 232.84247674 -370.4296875 240.55078125 C-370.01636024 243.18048481 -370.01636024 243.18048481 -369 246.375 C-367.71424077 251.03587722 -367.1615651 255.70747919 -366.5625 260.5 C-366.08020324 263.98812517 -366.08020324 263.98812517 -365.03515625 267.2265625 C-363.66344142 272.22685127 -363.07224544 277.23658452 -362.4375 282.375 C-362.1900195 284.36245877 -361.93892014 286.34947145 -361.68359375 288.3359375 C-361.57587646 289.20782715 -361.46815918 290.0797168 -361.35717773 290.97802734 C-361.20097953 292.99012756 -361.20097953 292.99012756 -360 294 C-359.72552087 295.65831923 -359.50845964 297.32622041 -359.31640625 298.99609375 C-359.19330078 300.03056641 -359.07019531 301.06503906 -358.94335938 302.13085938 C-358.81767578 303.22205078 -358.69199219 304.31324219 -358.5625 305.4375 C-357.77810643 312.23972781 -356.87068862 318.92397365 -355.46166992 325.62573242 C-354.7008782 329.53831808 -354.27458431 333.47406676 -353.875 337.4375 C-353.79008301 338.25645752 -353.70516602 339.07541504 -353.61767578 339.91918945 C-353.02480061 345.95709225 -352.75455621 351.93208416 -353 358 C-352.34 358 -351.68 358 -351 358 C-350.91435791 359.18553467 -350.82871582 360.37106934 -350.74047852 361.5925293 C-350.42122613 366.00031658 -350.09782907 370.40779175 -349.77319336 374.81518555 C-349.63339381 376.72102764 -349.49471114 378.62695201 -349.35717773 380.53295898 C-349.15904182 383.27610425 -348.95686175 386.01892637 -348.75390625 388.76171875 C-348.6934462 389.61086349 -348.63298615 390.46000824 -348.57069397 391.33488464 C-348.33797654 394.44022554 -348.11138641 397.45479565 -347.48754883 400.50830078 C-346.73613778 404.34851166 -346.62229884 408.20167093 -346.4453125 412.10546875 C-346.40326691 413.01822067 -346.36122131 413.9309726 -346.31790161 414.87138367 C-345.86107161 425.83696605 -345.84982265 436.80318616 -345.86962891 447.77661133 C-345.87502009 451.32572648 -345.86962985 454.87471662 -345.86328125 458.42382812 C-345.85636517 475.65622288 -346.67348931 492.56691556 -348.72949219 509.6784668 C-349.00597378 511.98738751 -349.2728356 514.29729848 -349.5390625 516.60742188 C-349.71298184 518.08079536 -349.8874392 519.55410546 -350.0625 521.02734375 C-350.14169678 521.71569809 -350.22089355 522.40405243 -350.30249023 523.11326599 C-350.88496679 527.88496679 -350.88496679 527.88496679 -352 529 C-352.44872402 531.81058894 -352.85697994 534.61907103 -353.25 537.4375 C-354.29144311 544.45700112 -355.67388303 551.28328335 -357.5625 558.125 C-357.77229492 558.90029053 -357.98208984 559.67558105 -358.19824219 560.47436523 C-358.73163411 562.33681309 -359.35754964 564.17230295 -360 566 C-360.66 566.33 -361.32 566.66 -362 567 C-360.88769741 560.60097955 -359.64248882 554.25536899 -358.19848633 547.9230957 C-354.73461934 532.68341065 -352.49892903 517.41043439 -350.875 501.875 C-350.79934814 501.16126221 -350.72369629 500.44752441 -350.64575195 499.7121582 C-342.32090438 414.17787682 -355.71990608 326.17391055 -372.5090332 242.45025635 C-372.9832248 240.08371961 -373.45381216 237.71649015 -373.92382812 235.34912109 C-383.7396547 186.09520214 -396.14939041 137.29006572 -409.81640625 88.97265625 C-410.03237457 88.20898743 -410.2483429 87.4453186 -410.47085571 86.6585083 C-411.45694515 83.18005322 -412.45142915 79.70435827 -413.46191406 76.23291016 C-413.80061523 75.05647949 -414.13931641 73.88004883 -414.48828125 72.66796875 C-414.78259033 71.66016357 -415.07689941 70.6523584 -415.38012695 69.61401367 C-416 67 -416 67 -416 63 C-414.10846191 62.94054199 -414.10846191 62.94054199 -412.17871094 62.87988281 C-306.72614178 59.49100537 -201.25010178 49.68432418 -10.72583008 1.50195312 C-9.73478271 1.15455078 -8.74373535 0.80714844 -7.72265625 0.44921875 C-6.87453369 0.14330811 -6.02641113 -0.16260254 -5.15258789 -0.4777832 C-3 -1 -3 -1 0 0 Z " fill="#FFFFFF" transform="translate(1731,1157)"/>
<path d="M0 0 C0 4.07537867 -1.97977314 6.49926637 -4.125 9.8125 C-4.56803467 10.50972168 -5.01106934 11.20694336 -5.4675293 11.92529297 C-6.97107483 14.28826462 -8.48459423 16.64461847 -10 19 C-19.31358064 33.49365262 -28.37664341 48.08364004 -37 63 C-37.79422363 64.36995117 -37.79422363 64.36995117 -38.60449219 65.76757812 C-74.68811142 128.19552969 -124.55983259 217.44699857 -105 293 C-101.66355301 305.39675416 -96.26823909 316.18861029 -88 326 C-87.34644531 326.88751953 -87.34644531 326.88751953 -86.6796875 327.79296875 C-73.68085957 344.80041726 -49.13349965 351.94518369 -29 354.75 C35.76001758 362.84170538 103.26789948 338.31374032 161.99609375 313.1640625 C163.13714821 312.67620773 163.13714821 312.67620773 164.30125427 312.17849731 C168.04561196 310.57589698 171.78492015 308.96303407 175.51635742 307.33056641 C176.86761749 306.74628445 178.21893301 306.1621307 179.5703125 305.578125 C180.76414551 305.05637695 181.95797852 304.53462891 183.18798828 303.99707031 C184.57993408 303.50352051 184.57993408 303.50352051 186 303 C186.66 303.33 187.32 303.66 188 304 C178.58060378 308.91122244 169.04183219 313.16614317 159.18652344 317.11621094 C156.99513936 318.00196466 154.81301796 318.90741859 152.6328125 319.8203125 C144.86173654 323.07065558 137.07730869 326.11423522 129.12109375 328.88671875 C126.41590248 329.8516493 123.77433693 330.89353816 121.125 332 C116.38828602 333.92692902 111.54693387 335.44321008 106.65893555 336.92919922 C102.6896553 338.14141034 98.75109469 339.41420475 94.828125 340.76953125 C85.61387857 343.94737777 76.65518344 346.77970458 67.03125 348.39453125 C64.06082366 348.88799588 64.06082366 348.88799588 61.64428711 349.96386719 C26.12022278 363.88355411 -25.74088311 363.83234991 -61.11328125 349.12109375 C-81.8791497 339.8066945 -96.5086576 323.24630233 -105.09277344 302.38964844 C-113.46251674 280.34361844 -113.10612271 253.92389651 -109 231 C-108.87641113 230.26507324 -108.75282227 229.53014648 -108.62548828 228.77294922 C-106.25316199 214.81216844 -102.36639617 201.45432815 -98 188 C-97.5364209 186.56382324 -97.5364209 186.56382324 -97.06347656 185.09863281 C-96.15412853 182.29234472 -95.23628442 179.48906697 -94.3125 176.6875 C-94.03946045 175.85871338 -93.7664209 175.02992676 -93.48510742 174.17602539 C-91.53538914 168.35980698 -89.32680582 162.67494072 -87 157 C-86.57976562 155.96230469 -86.15953125 154.92460938 -85.7265625 153.85546875 C-82.67947486 146.47546571 -79.40801467 139.21943383 -76 132 C-75.59974609 131.14905762 -75.19949219 130.29811523 -74.78710938 129.42138672 C-69.67254195 118.56509957 -64.4868821 107.78607523 -58.74609375 97.24609375 C-57.17148506 94.31880109 -55.6974999 91.3664998 -54.25 88.375 C-51.34431324 82.49941241 -48.12240525 76.81625832 -44.875 71.125 C-44.35969727 70.22056152 -43.84439453 69.31612305 -43.31347656 68.38427734 C-40.68539414 63.8093727 -37.94225185 59.38167248 -35 55 C-34.01931699 53.24144539 -33.06017459 51.47067188 -32.125 49.6875 C-29.36812285 44.56857483 -26.2992121 39.7817152 -23 35 C-19.99468984 30.6105648 -17.08383234 26.25085982 -14.5625 21.5625 C-11.77224878 16.42161914 -8.41999031 11.73656973 -5 7 C-4.02048784 5.6252461 -3.04127637 4.25027785 -2.0625 2.875 C-1.381875 1.92625 -0.70125 0.9775 0 0 Z " fill="#FFFFFF" transform="translate(376,1439)"/>
<path d="M0 0 C3.46261841 0.00008111 6.92510407 -0.00685529 10.38769531 -0.02050781 C38.95772745 -0.13112019 67.11895413 1.03490881 95.53051758 4.30761719 C98.31405029 4.62758342 101.09874934 4.93539785 103.88378906 5.24194336 C114.89568868 6.47272652 125.83238217 7.98438116 136.76266479 9.80001831 C139.11216245 10.18981565 141.46274003 10.57238161 143.8137207 10.953125 C147.69696201 11.58309356 151.57869156 12.22176328 155.4597168 12.86523438 C157.02100462 13.12349871 158.58253512 13.38029969 160.14428711 13.63574219 C162.46229171 14.01494777 164.7795447 14.39847963 167.09667969 14.78295898 C167.78324142 14.89446793 168.46980316 15.00597687 169.1771698 15.12086487 C173.89239777 15.91022597 178.45998643 16.9934777 183.08496094 18.18530273 C185.35239135 18.66018459 187.62335814 19.11847705 189.89746094 19.56030273 C195.96643454 20.75948809 202.02877406 21.98553239 208.08496094 23.24780273 C208.87362549 23.41006348 209.66229004 23.57232422 210.47485352 23.73950195 C215.08001726 24.70349861 219.55994833 25.88835497 224.08496094 27.18530273 C229.26658227 28.46237139 234.46486609 29.67059173 239.66113281 30.88647461 C245.34562444 32.23271097 250.95422574 33.68913043 256.53637695 35.41064453 C261.46308154 36.90814751 266.43562531 38.24724809 271.39746094 39.62280273 C286.15163871 43.7461227 286.15163871 43.7461227 292.08496094 45.49780273 C293.05433594 45.78268555 294.02371094 46.06756836 295.02246094 46.36108398 C297.08496094 47.18530273 297.08496094 47.18530273 298.08496094 49.18530273 C289.10776684 47.64004801 280.50829258 45.04804657 271.78509521 42.47766113 C226.31854198 29.13543382 179.94939439 19.14965702 133.08496094 12.18530273 C131.93721191 12.01047363 130.78946289 11.83564453 129.60693359 11.65551758 C47.81345138 -0.73250876 -37.31606737 -2.79040521 -229.9453125 48.37158203 C-230.59532227 48.64010986 -231.24533203 48.9086377 -231.91503906 49.18530273 C-232.57503906 48.85530273 -233.23503906 48.52530273 -233.91503906 48.18530273 C-219.02715838 40.07212848 -204.17772355 33.40051103 -188.11474609 27.94311523 C-185.46671096 27.03085097 -182.84674434 26.05200183 -180.22753906 25.06030273 C-167.76270611 20.50284819 -154.81963889 17.23109016 -141.91503906 14.18530273 C-141.1810791 14.01111816 -140.44711914 13.83693359 -139.69091797 13.6574707 C-130.90571008 11.58914961 -122.19332502 9.77490576 -113.22363281 8.67749023 C-110.66072283 8.2962309 -108.23882694 7.8155817 -105.72363281 7.22436523 C-100.37177259 6.00259225 -94.98697176 5.33311755 -89.54003906 4.68530273 C-88.48494141 4.55784668 -87.42984375 4.43039062 -86.34277344 4.29907227 C-84.2021422 4.04264922 -82.06119255 3.78886924 -79.91992188 3.5378418 C-78.05945427 3.31956789 -76.19934537 3.09818189 -74.33984375 2.87182617 C-49.65861789 -0.12815802 -24.82418815 -0.00305971 0 0 Z " fill="#FFFFFF" transform="translate(488.9150390625,565.814697265625)"/>
<path d="M0 0 C1 2 1 2 0.50610352 3.69458008 C0.07189087 4.72168091 0.07189087 4.72168091 -0.37109375 5.76953125 C-0.69416504 6.56045166 -1.01723633 7.35137207 -1.35009766 8.16625977 C-1.88836182 9.47614868 -1.88836182 9.47614868 -2.4375 10.8125 C-23.78653863 64.9411493 -29.14966614 125.89378569 -30.5625 183.625 C-30.58334656 184.45847961 -30.60419312 185.29195923 -30.62567139 186.1506958 C-30.95433387 199.4375978 -31.20081769 212.70898867 -31 226 C-30.99139954 226.64769348 -30.98279907 227.29538696 -30.97393799 227.96270752 C-30.45638902 266.81031452 -28.01820371 305.51465056 -24.27026367 344.18066406 C-24.14347733 345.50030403 -24.14347733 345.50030403 -24.01412964 346.84660339 C-23.85706657 348.47266177 -23.69702431 350.09843668 -23.53323364 351.72383118 C-23.10185087 356.17417201 -22.92737372 360.52850663 -23 365 C-27.16560962 364.27750007 -31.04587223 363.06117487 -35.05078125 361.71484375 C-35.70958786 361.49429825 -36.36839447 361.27375275 -37.04716492 361.04652405 C-39.13657177 360.34634445 -41.22454302 359.64198992 -43.3125 358.9375 C-44.73493306 358.46000938 -46.15745818 357.98279292 -47.58007812 357.50585938 C-51.05445656 356.34041068 -54.52756063 355.17121529 -58 354 C-58 353.67 -58 353.34 -58 353 C-52.38949307 353.56355538 -47.34909664 354.61771789 -42 356.375 C-40.95779297 356.70890747 -40.95779297 356.70890747 -39.89453125 357.04956055 C-35.20837599 358.56453827 -30.58010676 360.18704108 -26 362 C-26.41060361 354.86846362 -26.89484222 347.76679356 -27.68432617 340.66699219 C-29.08651387 327.9729342 -29.69340157 315.24574984 -30.30249023 302.49365234 C-30.341716 301.700466 -30.38094177 300.90727966 -30.4213562 300.09005737 C-30.49538942 298.58805064 -30.5660651 297.08587339 -30.63284302 295.58352661 C-30.812731 291.77306475 -30.812731 291.77306475 -31.4981842 288.03096008 C-32.00842769 285.96589125 -32.19329424 284.09388147 -32.29443359 281.97143555 C-32.33315582 281.17776077 -32.37187805 280.384086 -32.41177368 279.56636047 C-32.46704727 278.27087532 -32.46704727 278.27087532 -32.5234375 276.94921875 C-32.56455658 276.02936691 -32.60567566 275.10951508 -32.64804077 274.16178894 C-33.16100488 262.05026217 -33.40973829 249.93240491 -33.625 237.8125 C-33.65868683 235.95887848 -33.65868683 235.95887848 -33.6930542 234.06781006 C-33.98081923 217.57768058 -34.05451425 201.11276158 -33.625 184.625 C-33.60367004 183.80069489 -33.58234009 182.97638977 -33.56036377 182.12710571 C-33.31962238 173.27566832 -32.95466477 164.43005703 -32.5234375 155.5859375 C-32.48658844 154.78491608 -32.44973938 153.98389465 -32.41177368 153.15859985 C-32.22939768 149.63587339 -31.86598273 146.40683806 -31 143 C-30.74926276 140.39272728 -30.53414546 137.79557195 -30.3515625 135.18359375 C-30.23440344 133.60885427 -30.11679196 132.0341484 -29.9987793 130.45947266 C-29.93814301 129.63924622 -29.87750671 128.81901978 -29.81503296 127.97393799 C-27.86607891 101.96054999 -27.86607891 101.96054999 -25.50830078 89.65332031 C-24.87009187 86.32188208 -24.26359895 82.98492467 -23.65234375 79.6484375 C-20.07482209 60.31328389 -15.62001051 41.63620316 -9.5 22.9375 C-9.13221436 21.80666992 -8.76442871 20.67583984 -8.38549805 19.51074219 C-6.10157532 12.69381608 -3.41652277 6.32752143 0 0 Z " fill="#FFFFFF" transform="translate(845,262)"/>
<path d="M0 0 C11.97256369 2.36229956 24.08225326 15.55357299 31 25 C31.71484375 27.26171875 31.71484375 27.26171875 32 29 C32.66 29 33.32 29 34 29 C50.74718336 59.39357819 57.21156177 90.03926372 57.13037109 124.59838867 C57.12503113 127.29676994 57.13033439 129.99498328 57.13671875 132.69335938 C57.14841702 159.55474893 57.14841702 159.55474893 55 166 C54.75952559 168.09643896 54.56148172 170.19784469 54.38671875 172.30078125 C54.27521484 173.57759766 54.16371094 174.85441406 54.04882812 176.16992188 C53.96097046 177.18397095 53.96097046 177.18397095 53.87133789 178.21850586 C52.66294642 191.98261434 50.77192044 205.45819761 48 219 C47.76539063 220.21945312 47.53078125 221.43890625 47.2890625 222.6953125 C46.55810162 226.47051047 45.78603551 230.23599516 45 234 C44.78585449 235.02963867 44.57170898 236.05927734 44.35107422 237.12011719 C39.09667117 262.29204671 39.09667117 262.29204671 35.921875 273.6640625 C35.09740055 276.64754208 34.33871117 279.64038853 33.60668945 282.64770508 C29.55360766 299.28526689 24.54135711 315.65893307 19.515625 332.0234375 C18.29595944 336.00316106 17.12598589 339.99281491 16 344 C15.34 344 14.68 344 14 344 C15.46094558 335.58495346 17.8452848 327.53478163 20.33670044 319.38290405 C34.03020736 274.4251569 45.1196426 228.6837069 51 182 C51.24121582 180.16767822 51.24121582 180.16767822 51.48730469 178.29833984 C53.6084422 161.76002744 54.27991184 145.40596864 54.3125 128.75 C54.31617584 127.8546051 54.31985168 126.95921021 54.32363892 126.03668213 C54.35772947 110.18621483 53.4778822 94.35848757 50.1875 78.8125 C50.01500732 77.9862915 49.84251465 77.16008301 49.66479492 76.30883789 C45.52980839 57.16401617 38.68758647 38.20535655 26 23 C25.00613281 21.74703125 25.00613281 21.74703125 23.9921875 20.46875 C18.73489502 14.18327855 12.77049229 9.68462496 6.0390625 5.12890625 C3.7380001 3.5169795 1.85682729 2.07724205 0 0 Z " fill="#FFFFFF" transform="translate(1749,194)"/>
<path d="M0 0 C5.63527379 3.12735033 10.99759279 6.57624524 16.375 10.125 C39.13641456 24.95641736 62.93194968 37.92336048 89 46 C90.1446875 46.37382813 91.289375 46.74765625 92.46875 47.1328125 C120.89606253 55.93484734 152.54920526 56.3209381 180 44 C181.29860802 43.26532037 182.58816596 42.51436508 183.8671875 41.74609375 C184.90101563 41.16988281 185.93484375 40.59367187 187 40 C187.66 40.33 188.32 40.66 189 41 C169.13852548 55.93459712 141.67735643 58.63582134 117.64453125 55.57226562 C105.0820093 53.59142248 92.88147361 50.52963543 81 46 C79.85273437 45.57589844 78.70546875 45.15179687 77.5234375 44.71484375 C51.77462527 35.03684191 27.50326113 21.37812518 5.09375 5.48046875 C3.41467243 4.29321054 1.71104898 3.14069932 0 2 C0 1.34 0 0.68 0 0 Z " fill="#FFFFFF" transform="translate(1128,1760)"/>
<path d="M0 0 C0.99 0.33 1.98 0.66 3 1 C2.45400146 1.34554932 1.90800293 1.69109863 1.34545898 2.04711914 C-25.54337214 19.07792301 -52.08410956 36.51845862 -78 55 C-78.70946777 55.50466797 -79.41893555 56.00933594 -80.14990234 56.52929688 C-90.91308044 64.19621826 -101.4690387 72.10986996 -111.95703125 80.1484375 C-115.7315598 83.03941402 -119.53004827 85.89478923 -123.34765625 88.72851562 C-130.75526719 94.2289981 -137.94311237 99.95703081 -145.08203125 105.80078125 C-148.96842801 108.98073685 -152.87831474 112.12937495 -156.8125 115.25 C-157.68382568 115.94911499 -157.68382568 115.94911499 -158.57275391 116.66235352 C-161.04956136 118.6185652 -162.97824906 119.99274969 -166 121 C-165.67 120.01 -165.34 119.02 -165 118 C-162.4375 116.8125 -162.4375 116.8125 -160 116 C-160 115.34 -160 114.68 -160 114 C-158.15905369 112.43733627 -156.31468257 110.99400617 -154.375 109.5625 C-153.16995137 108.65577337 -151.96554501 107.74819265 -150.76171875 106.83984375 C-150.13700684 106.37046387 -149.51229492 105.90108398 -148.86865234 105.41748047 C-145.94069496 103.19645609 -143.0666525 100.90867922 -140.1875 98.625 C-134.50165741 94.1347077 -128.73332165 89.76355934 -122.92211914 85.43701172 C-119.64572569 82.99524314 -116.38740471 80.53609164 -113.16796875 78.01953125 C-112.56927979 77.55232666 -111.97059082 77.08512207 -111.35375977 76.60375977 C-110.22730687 75.72165535 -109.1039275 74.83560742 -107.98413086 73.94506836 C-104.21973485 71 -104.21973485 71 -102 71 C-102 70.34 -102 69.68 -102 69 C-100.68463632 68.06539949 -99.3579297 67.14446294 -97.9921875 66.28515625 C-94.62980736 64.11609141 -91.4166298 61.73078149 -88.171875 59.390625 C-86 58 -86 58 -84 58 C-84 57.34 -84 56.68 -84 56 C-82.27956284 54.72093154 -80.49491932 53.52789009 -78.6875 52.375 C-74.62945624 49.73750831 -70.64384383 47.06195092 -66.75 44.1875 C-36.52608268 22 -36.52608268 22 -32 22 C-32 21.34 -32 20.68 -32 20 C-29.4453125 18.2734375 -29.4453125 18.2734375 -26.125 16.375 C-25.03445313 15.74335938 -23.94390625 15.11171875 -22.8203125 14.4609375 C-20 13 -20 13 -18 13 C-18 12.34 -18 11.68 -18 11 C-17.03578125 10.45730469 -16.0715625 9.91460937 -15.078125 9.35546875 C-13.80200123 8.6329575 -12.52596412 7.91029317 -11.25 7.1875 C-10.61578125 6.83107422 -9.9815625 6.47464844 -9.328125 6.10742188 C-6.63628422 4.57924143 -4.15179321 3.12221971 -1.734375 1.17578125 C-1.16203125 0.78777344 -0.5896875 0.39976562 0 0 Z " fill="#FFFFFF" transform="translate(1501,253)"/>
<path d="M0 0 C0.66 0 1.32 0 2 0 C3.96648306 2.53610926 5.46901107 5.4061622 7.0625 8.1875 C7.79351929 9.46234253 7.79351929 9.46234253 8.53930664 10.76293945 C20.15685759 31.48087379 27.18792069 52.06911816 27.18530273 75.94750977 C27.18747673 78.16377335 27.20562979 80.37952818 27.22460938 82.59570312 C27.27566604 94.67357328 25.66050311 105.26050091 21.5 116.625 C21.15541748 117.56996338 20.81083496 118.51492676 20.45581055 119.48852539 C15.94918041 131.35855122 9.43277063 141.76838857 2 152 C1.34 151.67 0.68 151.34 0 151 C0.6290625 150.030625 1.258125 149.06125 1.90625 148.0625 C20.91146499 118.45197949 30.15279671 88.05661657 22.47753906 52.58544922 C18.38701155 35.20574487 11.36304933 18.57518878 1.1796875 3.86328125 C0 2 0 2 0 0 Z " fill="#FFFFFF" transform="translate(1879,910)"/>
<path d="M0 0 C4.55667402 1.34380955 8.2219038 3.18187144 12.25 5.6875 C19.17879403 9.93958217 26.19840466 14.01772422 33.25 18.0625 C42.33569723 23.28253118 51.37252561 28.57478514 60.375 33.9375 C69.53035347 39.38847086 78.73639407 44.73629438 88 50 C105.15100962 59.74609398 122.09214991 69.83833028 139 80 C136 81 136 81 134.25756836 80.29077148 C133.62471924 79.90477783 132.99187012 79.51878418 132.33984375 79.12109375 C131.6334375 78.69723389 130.92703125 78.27337402 130.19921875 77.83666992 C129.45285156 77.37494385 128.70648437 76.91321777 127.9375 76.4375 C127.17179688 75.97512939 126.40609375 75.51275879 125.6171875 75.03637695 C123.40606278 73.69955377 121.202614 72.35078301 119 71 C117.167962 69.89368544 115.3349183 68.78903073 113.5 67.6875 C112.8296875 67.27886719 112.159375 66.87023438 111.46875 66.44921875 C109.28943817 65.16990753 107.09205632 63.94200249 104.87890625 62.72265625 C99.6674162 59.83850822 94.55411972 56.79835295 89.4375 53.75 C82.85326043 49.84079724 76.25342619 45.97388639 69.5625 42.25 C63.80895266 39.04776654 58.14576202 35.72042791 52.51318359 32.31030273 C48.27257615 29.74787164 43.99647473 27.25808672 39.6875 24.8125 C33.24145005 21.15079559 26.88141983 17.36475658 20.55078125 13.5078125 C15.2096111 10.27124785 9.80178868 7.25717229 4.25 4.39453125 C2 3 2 3 0 0 Z " fill="#FFFFFF" transform="translate(425,1106)"/>
<path d="M0 0 C3.7132971 1.2377657 4.62780182 2.74391789 7 5.8125 C7.680625 6.68519531 8.36125 7.55789063 9.0625 8.45703125 C9.701875 9.29621094 10.34125 10.13539063 11 11 C11.5775 11.72574219 12.155 12.45148438 12.75 13.19921875 C14 15 14 15 14 17 C14.66 17 15.32 17 16 17 C17.5234375 18.84375 17.5234375 18.84375 19.375 21.5 C22.28734716 25.61309788 25.24592012 29.67250748 28.29370117 33.6862793 C33.02751656 39.92371455 37.62794699 46.23336799 42.0625 52.6875 C42.74179565 53.67592896 42.74179565 53.67592896 43.43481445 54.68432617 C50 64.31865818 50 64.31865818 50 67 C50.66 67 51.32 67 52 67 C53.7265625 69.5546875 53.7265625 69.5546875 55.625 72.875 C56.25664063 73.96554687 56.88828125 75.05609375 57.5390625 76.1796875 C59 79 59 79 59 81 C59.66 81 60.32 81 61 81 C62.12915039 82.49707031 62.12915039 82.49707031 63.34765625 84.578125 C63.78787109 85.32707031 64.22808594 86.07601562 64.68164062 86.84765625 C65.13732422 87.64042969 65.59300781 88.43320312 66.0625 89.25 C66.52205078 90.02730469 66.98160156 90.80460937 67.45507812 91.60546875 C69.46696606 95.0620163 71.1814226 98.05358363 72 102 C72.66 102 73.32 102 74 102 C78.33390117 107.90037147 81.414417 114.73405237 84.60546875 121.29296875 C85.76172927 123.53747446 86.96430867 125.52230719 88.4375 127.5625 C88.953125 128.366875 89.46875 129.17125 90 130 C89.67 130.99 89.34 131.98 89 133 C88.5781543 132.28682617 88.15630859 131.57365234 87.72167969 130.83886719 C83.62371763 123.9125161 83.62371763 123.9125161 79.51806641 116.99072266 C78.76985066 115.7307979 78.02164103 114.47086951 77.2734375 113.2109375 C76.90106964 112.5839798 76.52870178 111.95702209 76.14505005 111.31106567 C74.09391272 107.85440699 72.05768037 104.38985676 70.0390625 100.9140625 C51.04706636 68.41918654 29.16892174 36.97815084 5.04907227 8.08764648 C4.53272217 7.46317627 4.01637207 6.83870605 3.484375 6.1953125 C3.02772461 5.64891113 2.57107422 5.10250977 2.10058594 4.53955078 C1 3 1 3 0 0 Z " fill="#FFFFFF" transform="translate(1073,276)"/>
<path d="M0 0 C1.32 0.66 2.64 1.32 4 2 C3.18917969 2.99257812 2.37835937 3.98515625 1.54296875 5.0078125 C-3.85793223 11.63081516 -9.24075286 18.2637002 -14.5 25 C-18.98196624 30.74013402 -23.55956604 36.39693303 -28.1640625 42.0390625 C-31.65530083 46.32451618 -35.09818888 50.64329453 -38.5 55 C-42.9820011 60.74010668 -47.55956557 66.39693246 -52.1640625 72.0390625 C-55.65530083 76.32451618 -59.09818888 80.64329453 -62.5 85 C-66.97359896 90.72934604 -71.53940656 96.37826465 -76.13989258 102.00610352 C-80.36797559 107.1893849 -84.50688715 112.43760126 -88.57421875 117.74804688 C-91.78351547 121.89175774 -91.78351547 121.89175774 -94 123 C-92.48621428 118.08942681 -89.61552957 114.98573782 -86.25 111.25 C-82.20076847 106.65790181 -78.46819704 102.11747846 -75.28125 96.8671875 C-73.74761584 94.63219625 -71.91872238 92.91524012 -70 91 C-68.32668922 88.93280471 -66.68470736 86.85628899 -65.0625 84.75 C-60.35119541 78.68454798 -55.5230225 72.72514736 -50.65136719 66.78808594 C-46.70559524 61.94803415 -43.02467004 56.99309556 -39.48828125 51.84375 C-38.99714844 51.2353125 -38.50601563 50.626875 -38 50 C-37.34 50 -36.68 50 -36 50 C-35.76925781 49.46890625 -35.53851562 48.9378125 -35.30078125 48.390625 C-33.58940719 45.245397 -31.4156833 42.53689663 -29.1875 39.75 C-28.70611572 39.1422876 -28.22473145 38.5345752 -27.72875977 37.90844727 C-24.00363128 33.21999543 -20.22207467 28.57797596 -16.4375 23.9375 C-12.320859 18.88052508 -8.21321901 13.81731608 -4.1875 8.6875 C-3.37667969 7.66011719 -2.56585937 6.63273437 -1.73046875 5.57421875 C0.27894646 3.10200915 0.27894646 3.10200915 0 0 Z " fill="#FFFFFF" transform="translate(564,1187)"/>
<path d="M0 0 C-3.29960466 2.19973644 -6.54931182 3.26068888 -10.2890625 4.43359375 C-11.79151217 4.91620712 -13.29369893 5.39963954 -14.7956543 5.88378906 C-15.58386566 6.13680786 -16.37207703 6.38982666 -17.18417358 6.6505127 C-33.28618597 11.84222942 -48.67875309 17.79051015 -64 25 C-65.544639 25.70647259 -67.09015565 26.41103077 -68.63671875 27.11328125 C-84.21904594 34.23980837 -99.20704314 42.51453419 -114.1875 50.8125 C-115.33395996 51.44679932 -116.48041992 52.08109863 -117.66162109 52.73461914 C-122.40305215 55.37390183 -127.10503496 58.02241857 -131.67578125 60.94921875 C-135 63 -135 63 -137 63 C-137 62.34 -137 61.68 -137 61 C-136.19949219 60.56300781 -136.19949219 60.56300781 -135.3828125 60.1171875 C-131.26101507 57.8494858 -127.19630852 55.52496099 -123.1875 53.0625 C-118.48291648 50.20588278 -113.62611216 47.77081625 -108.6640625 45.39453125 C-106.20577158 44.10771328 -104.20620145 42.66555129 -102 41 C-100.26999882 40.06612994 -98.51720792 39.17389045 -96.75 38.3125 C-95.15091797 37.52746094 -95.15091797 37.52746094 -93.51953125 36.7265625 C-92.35808594 36.15679687 -91.19664063 35.58703125 -90 35 C-88.77390243 34.38447725 -87.54866159 33.7672454 -86.32421875 33.1484375 C-70.21473007 25.00953299 -54.03921764 17.37014021 -37.19775391 10.85498047 C-35.27563084 10.10722719 -33.36167712 9.33854291 -31.44921875 8.56640625 C-25.38225249 6.14113082 -19.25329698 4.06914668 -13 2.1875 C-12.28110596 1.96811768 -11.56221191 1.74873535 -10.8215332 1.52270508 C-7.12620285 0.44393863 -3.85506276 -0.26352968 0 0 Z " fill="#FFFFFF" transform="translate(1641,190)"/>
<path d="M0 0 C-0.495 0.99 -0.495 0.99 -1 2 C-2.32451172 0.948125 -2.32451172 0.948125 -3.67578125 -0.125 C-22.37253287 -14.92888726 -41.52882824 -28.68193694 -64.3125 -36.375 C-65.01656982 -36.6136377 -65.72063965 -36.85227539 -66.44604492 -37.09814453 C-76.1379138 -40.20772687 -85.65650858 -41.36421995 -95.8125 -41.3125 C-96.85623779 -41.31193604 -97.89997559 -41.31137207 -98.9753418 -41.31079102 C-106.13597434 -41.22586917 -112.56994373 -40.47326281 -119.48828125 -38.55859375 C-122 -38 -122 -38 -125 -39 C-82.78373978 -61.65262744 -31.20811412 -25.4385468 0 0 Z " fill="#FFFFFF" transform="translate(1033,233)"/>
<path d="M0 0 C3.72855669 3.68075468 7.32816492 7.45680014 10.875 11.3125 C11.67151978 12.17669556 11.67151978 12.17669556 12.48413086 13.05834961 C15.77066707 16.63412109 18.99668252 20.25403767 22.17578125 23.92578125 C25.8932375 28.15269617 29.72997558 32.27298224 33.54296875 36.41357422 C35.00193345 38.00210515 36.45495777 39.59586496 37.90625 41.19140625 C42.2749766 45.98925743 46.66662675 50.73102509 51.3046875 55.2722168 C52.91569224 56.91407747 54.39285678 58.60908241 55.875 60.3671875 C60.80784227 66.03670226 66.15085746 71.30041067 71.47167969 76.60205078 C73.2635506 78.38850968 75.04994794 80.18031955 76.8359375 81.97265625 C77.97884574 83.11490454 79.12206368 84.25684305 80.265625 85.3984375 C80.79690002 85.93173676 81.32817505 86.46503601 81.87554932 87.01449585 C84.16197131 89.28643744 86.30736475 91.20490983 89 93 C89 93.66 89 94.32 89 95 C85.70007891 93.55810719 83.52170824 91.76993921 80.98510742 89.22802734 C80.20717331 88.45316986 79.4292392 87.67831238 78.62773132 86.87997437 C77.37921135 85.62067612 77.37921135 85.62067612 76.10546875 84.3359375 C74.80709831 83.03687973 74.80709831 83.03687973 73.48249817 81.71157837 C71.6502678 79.8763264 69.820469 78.03864413 67.99291992 76.19873047 C65.21383909 73.40151101 62.42695851 70.6122587 59.63867188 67.82421875 C57.85630055 66.0369272 56.07438492 64.24918107 54.29296875 62.4609375 C53.05355782 61.21985733 53.05355782 61.21985733 51.78910828 59.95370483 C39.03760014 47.09887728 39.03760014 47.09887728 36.93009949 42.83578491 C35.71365887 40.43483388 34.39819213 40.1200596 32 39 C30.39453125 37.40625 30.39453125 37.40625 28.8125 35.5 C26.1962654 32.40707859 23.54060843 29.3699886 20.8125 26.375 C17.04277017 22.19720664 13.35051159 17.9586823 9.6875 13.6875 C9.18387939 13.10081543 8.68025879 12.51413086 8.16137695 11.90966797 C6.76729118 10.27885064 5.38173189 8.64128943 4 7 C2.83404297 5.61748047 2.83404297 5.61748047 1.64453125 4.20703125 C0 2 0 2 0 0 Z " fill="#FFFFFF" transform="translate(958,1598)"/>
<path d="M0 0 C0.495 0.99 0.495 0.99 1 2 C-6.72855591 8.38788805 -14.56241553 14.62573359 -22.46777344 20.79248047 C-23.88026988 21.9056429 -25.27317039 23.04355168 -26.6640625 24.18359375 C-28.73308484 25.79244891 -30.68596111 27.03874527 -33 28.25 C-36.81535781 30.31218513 -40.505324 32.5206706 -44.1875 34.8125 C-55.12485215 41.57053873 -66.08150141 47.7426891 -77.82373047 53.01123047 C-80.31177498 54.14165231 -82.7823433 55.30665641 -85.25390625 56.47265625 C-87.06488075 57.31558433 -88.87607688 58.15803641 -90.6875 59 C-91.54939941 59.41048584 -92.41129883 59.82097168 -93.29931641 60.24389648 C-94.11190918 60.61716064 -94.92450195 60.9904248 -95.76171875 61.375 C-96.48319092 61.71273438 -97.20466309 62.05046875 -97.94799805 62.3984375 C-100.35411193 63.10381104 -101.66051336 62.81110104 -104 62 C-102.79988281 61.46632813 -101.59976562 60.93265625 -100.36328125 60.3828125 C-94.89850172 57.94459478 -89.4463564 55.479076 -84 53 C-83.11892578 52.5992627 -82.23785156 52.19852539 -81.33007812 51.78564453 C-51.67600112 38.21371651 -24.95810191 20.93942449 0 0 Z " fill="#FFFFFF" transform="translate(1858,1084)"/>
<path d="M0 0 C4.38786825 0.57268133 7.29098075 2.19336396 11 4.5625 C12.1547681 5.29325298 13.30972128 6.02371357 14.46484375 6.75390625 C15.05120605 7.12789551 15.63756836 7.50188477 16.24169922 7.88720703 C18.99279005 9.62831672 21.78027268 11.30923611 24.5625 13 C30.1863415 16.4654661 35.71052515 20.05296282 41.17578125 23.76318359 C42.52044444 24.67486235 43.86709714 25.58360837 45.21484375 26.49072266 C62.51371023 38.13661676 62.51371023 38.13661676 69.91015625 44.28515625 C72.71108471 46.5834882 75.64460339 48.68135971 78.6015625 50.7734375 C79.06304688 51.17820312 79.52453125 51.58296875 80 52 C80 52.66 80 53.32 80 54 C77.27627111 52.71850788 74.95481348 51.31634138 72.59375 49.453125 C71.9433374 48.94539551 71.2929248 48.43766602 70.62280273 47.91455078 C69.92227783 47.36524902 69.22175293 46.81594727 68.5 46.25 C48.05697852 30.461446 26.41821031 16.53056192 4.11206055 3.52416992 C2.72581344 2.708671 1.35992719 1.85867198 0 1 C0 0.67 0 0.34 0 0 Z " fill="#FFFFFF" transform="translate(1740,794)"/>
<path d="M0 0 C2.31036843 2.14528226 3.88873978 4.27293564 5.4609375 7 C5.92556396 7.7950293 6.39019043 8.59005859 6.86889648 9.40917969 C7.36591064 10.26415039 7.8629248 11.11912109 8.375 12 C18.90190334 29.78077654 30.78457369 46.04376514 44.19140625 61.7421875 C44.69655762 62.33467285 45.20170898 62.9271582 45.72216797 63.53759766 C46.66811731 64.64304395 47.61865329 65.74458943 48.57470703 66.84130859 C50.80233252 69.42732446 52.65718037 71.84925004 54 75 C49.71095765 73.4114658 47.67654474 70.56872632 45 67 C45 66.34 45 65.68 45 65 C44.34 65 43.68 65 43 65 C41.2734375 63.1015625 41.2734375 63.1015625 39.375 60.625 C38.74335938 59.81289063 38.11171875 59.00078125 37.4609375 58.1640625 C36 56 36 56 36 54 C35.34 54 34.68 54 34 54 C32.4765625 52.19140625 32.4765625 52.19140625 30.625 49.5625 C29.91601562 48.56089844 29.20703125 47.55929687 28.4765625 46.52734375 C28.0837207 45.96644043 27.69087891 45.40553711 27.28613281 44.82763672 C25.89881123 42.85620745 24.49356393 40.89838394 23.0859375 38.94140625 C0 6.7307814 0 6.7307814 0 0 Z " fill="#FFFFFF" transform="translate(179,883)"/>
<path d="M0 0 C4.45529327 3.70929068 6.56797179 8.54693239 9.125 13.625 C10.1009043 15.52835012 11.0788055 17.43067756 12.05859375 19.33203125 C12.54956543 20.2854541 13.04053711 21.23887695 13.54638672 22.22119141 C15.67895656 26.2979314 17.92691298 30.30577702 20.1875 34.3125 C24.73222747 42.41424129 28.95366259 50.63940801 33 59 C33.36963867 59.75861328 33.73927734 60.51722656 34.12011719 61.29882812 C35.25456505 63.63304346 36.37909408 65.97175538 37.5 68.3125 C37.85078613 69.03638916 38.20157227 69.76027832 38.56298828 70.50610352 C41 75.65233981 41 75.65233981 41 79 C38.53737101 76.77799296 37.20544371 74.70192943 35.828125 71.6953125 C35.41892822 70.81673584 35.00973145 69.93815918 34.58813477 69.03295898 C34.14655029 68.07333252 33.70496582 67.11370605 33.25 66.125 C28.87155826 56.79779335 24.30435698 47.58383848 19.5625 38.4375 C19.0896608 37.52443588 19.0896608 37.52443588 18.60726929 36.59292603 C13.71437461 27.15907705 8.68756875 17.80104935 3.50415039 8.52319336 C3.04000732 7.68667236 2.57586426 6.85015137 2.09765625 5.98828125 C1.48676147 4.89833862 1.48676147 4.89833862 0.86352539 3.78637695 C0 2 0 2 0 0 Z " fill="#FFFFFF" transform="translate(1163,409)"/>
<path d="M0 0 C0.99 0.33 1.98 0.66 3 1 C2.24976563 1.47308594 1.49953125 1.94617188 0.7265625 2.43359375 C-6.48388672 7.09223412 -12.78840568 12.0603669 -19 18 C-19.90298828 18.80824219 -19.90298828 18.80824219 -20.82421875 19.6328125 C-33.41430243 31.31312323 -41.48887875 47.80934672 -49 63 C-50.42600325 58.72199024 -48.45637064 56.13234078 -46.5625 52.3125 C-46.22412109 51.61060547 -45.88574219 50.90871094 -45.53710938 50.18554688 C-44.70018652 48.45276294 -43.85122607 46.72580248 -43 45 C-42.34 45 -41.68 45 -41 45 C-40.88914062 44.42636719 -40.77828125 43.85273438 -40.6640625 43.26171875 C-35.67871178 26.28220071 -16.12069874 10.29131478 -2 1 C-1.34 0.67 -0.68 0.34 0 0 Z " fill="#FFFFFF" transform="translate(896,199)"/>
<path d="M0 0 C0.33 0 0.66 0 1 0 C-0.95116005 20.84298033 -14.60713916 42.37044957 -28 58 C-28.66 58 -29.32 58 -30 58 C-28.48671786 54.60681582 -26.47227683 52.05496089 -24.125 49.1875 C-12.9129036 34.73102257 -5.71322733 17.24026698 0 0 Z " fill="#FFFFFF" transform="translate(1368,1724)"/>
<path d="M0 0 C-0.84425537 0.54974487 -0.84425537 0.54974487 -1.70556641 1.1105957 C-17.21603254 11.24281482 -31.70963272 21.62184428 -45.16015625 34.37109375 C-47.69102457 36.71397461 -50.2768499 38.8864358 -53 41 C-46.60142271 25.49158385 -24.25957621 13.15363641 -11 4 C-10.26571777 3.49275391 -9.53143555 2.98550781 -8.77490234 2.46289062 C-8.06930176 1.99560547 -7.36370117 1.52832031 -6.63671875 1.046875 C-6.00854248 0.62760742 -5.38036621 0.20833984 -4.7331543 -0.22363281 C-3 -1 -3 -1 0 0 Z " fill="#FFFFFF" transform="translate(246,621)"/>
<path d="M0 0 C3.69759342 1.28645021 6.11968445 2.73069011 8.92578125 5.44921875 C9.64056641 6.13306641 10.35535156 6.81691406 11.09179688 7.52148438 C12.19104492 8.59366211 12.19104492 8.59366211 13.3125 9.6875 C14.76558002 11.08863793 16.22000112 12.48838644 17.67578125 13.88671875 C18.74723389 14.91792847 18.74723389 14.91792847 19.84033203 15.9699707 C22.5592915 18.52571884 25.36854647 20.96261644 28.21362305 23.37646484 C30.77705039 25.70621635 32.96626548 28.30415144 35.1953125 30.94921875 C37.75743722 33.86072412 40.56609864 36.49419255 43.3984375 39.140625 C45.10886774 41.12639279 45.60340432 42.43912502 46 45 C42.92559071 42.76406597 40.39754329 40.38539239 37.95703125 37.49609375 C33.44845952 32.29094148 28.61581512 27.43182581 23.75 22.5625 C22.87214844 21.67240234 21.99429687 20.78230469 21.08984375 19.86523438 C15.72966559 14.49328423 10.20019306 9.56952503 4.22363281 4.89038086 C2 3 2 3 0 0 Z " fill="#FFFFFF" transform="translate(1820,848)"/>
<path d="M0 0 C0.66 0.33 1.32 0.66 2 1 C-2.75 5 -2.75 5 -5 5 C-5 5.66 -5 6.32 -5 7 C-7.01953125 8.4453125 -7.01953125 8.4453125 -9.8125 10.125 C-14.96013379 13.29072827 -19.78690641 16.73434097 -24.58984375 20.3984375 C-26.82423092 21.88320045 -28.38100396 22.57464101 -31 23 C-31 23.66 -31 24.32 -31 25 C-32.86328125 26.54296875 -32.86328125 26.54296875 -35.3125 28.1875 C-36.51326172 29.01314453 -36.51326172 29.01314453 -37.73828125 29.85546875 C-38.48464844 30.23316406 -39.23101563 30.61085938 -40 31 C-40.99 30.67 -41.98 30.34 -43 30 C-33.69261463 23.24976317 -24.24684588 16.71882049 -14.72998047 10.26733398 C-9.77394578 6.90516644 -4.85530113 3.50623534 0 0 Z " fill="#FFFFFF" transform="translate(857,1567)"/>
<path d="M0 0 C0.66 0 1.32 0 2 0 C0.70891619 2.76655418 -0.7064804 5.04962067 -2.65234375 7.3984375 C-3.17634766 8.03612061 -3.70035156 8.67380371 -4.24023438 9.33081055 C-4.80033203 10.00539307 -5.36042969 10.67997559 -5.9375 11.375 C-10.82226682 17.31108325 -15.63083313 23.29293452 -20.30834961 29.39404297 C-23.00289069 32.86961806 -25.83973687 35.95824674 -29 39 C-27.66365141 35.19912915 -26.00140416 32.47240341 -23.4375 29.375 C-22.72207031 28.50230469 -22.00664062 27.62960937 -21.26953125 26.73046875 C-20.52058594 25.82941406 -19.77164062 24.92835937 -19 24 C-17.53992163 22.2306052 -16.0816096 20.45975147 -14.625 18.6875 C-13.88378906 17.78773437 -13.14257812 16.88796875 -12.37890625 15.9609375 C-10.64187267 13.7989154 -8.94641556 11.62730714 -7.27734375 9.4140625 C-6.82472168 8.81505127 -6.37209961 8.21604004 -5.90576172 7.59887695 C-5.02276959 6.42460334 -4.1453052 5.24614896 -3.27392578 4.06323242 C-2.22871961 2.67293492 -1.11953833 1.33117129 0 0 Z " fill="#FFFFFF" transform="translate(468,1310)"/>
<path d="M0 0 C0.66 0 1.32 0 2 0 C0.33843861 4.54277955 -1.93389922 8.64570297 -4.25 12.875 C-8.47663344 20.6997871 -11.9079225 28.66957944 -15 37 C-17.23075333 31.18609914 -13.36010952 25.30303337 -11 20 C-8.78953512 15.59383949 -6.43428371 11.28595449 -4 7 C-3.55914062 6.21753906 -3.11828125 5.43507813 -2.6640625 4.62890625 C-1.78550631 3.08052885 -0.89479621 1.53904948 0 0 Z " fill="#FFFFFF" transform="translate(173,685)"/>
<path d="M0 0 C4.77454403 1.7241409 9.08488817 4.15190492 13.5 6.625 C14.28938965 7.06505371 15.0787793 7.50510742 15.89208984 7.95849609 C22.71386809 11.78703102 29.38908515 15.81853796 36 20 C35.01 20.33 34.02 20.66 33 21 C30.31085287 19.63130852 27.8080752 18.20932696 25.25 16.625 C24.50298828 16.17253906 23.75597656 15.72007813 22.98632812 15.25390625 C21.43068607 14.31133157 19.87732848 13.36497718 18.32617188 12.41503906 C16.0890392 11.05416365 13.83794083 9.72123176 11.578125 8.3984375 C10.89073242 7.99415527 10.20333984 7.58987305 9.49511719 7.17333984 C8.18483957 6.40275807 6.8730331 5.6347689 5.55957031 4.86962891 C1.11324844 2.22649687 1.11324844 2.22649687 0 0 Z " fill="#FFFFFF" transform="translate(389,1085)"/>
<path d="M0 0 C0.66 0.33 1.32 0.66 2 1 C-5.00116986 7.57820571 -12.02451008 14.00109868 -19.5625 19.96484375 C-22.12265841 22.03226561 -22.12265841 22.03226561 -24.6875 24.75390625 C-27 27 -27 27 -29 27 C-27.67142125 23.01426374 -25.10019041 21.5206978 -21.78125 19.26953125 C-19.23043446 17.45151579 -17.18831678 15.23920786 -15 13 C-10.12805063 8.49970846 -5.2120368 4.10447898 0 0 Z " fill="#FFFFFF" transform="translate(1274,423)"/>
<path d="M0 0 C0.66 0.66 1.32 1.32 2 2 C-0.40625 3.75 -0.40625 3.75 -2.8125 5.5 C-4.30910156 6.58861328 -4.30910156 6.58861328 -5.8359375 7.69921875 C-7.90319327 9.20244548 -9.97088298 10.70507569 -12.0390625 12.20703125 C-13.47378906 13.24923828 -13.47378906 13.24923828 -14.9375 14.3125 C-16.25041016 15.26576172 -16.25041016 15.26576172 -17.58984375 16.23828125 C-19.14132771 17.37234813 -20.65899076 18.55500323 -22.12890625 19.79296875 C-22.74636719 20.19128906 -23.36382813 20.58960938 -24 21 C-24.99 20.67 -25.98 20.34 -27 20 C-26.46632813 19.60731934 -25.93265625 19.21463867 -25.3828125 18.81005859 C-22.92159953 16.99874637 -20.46079776 15.18687628 -18 13.375 C-17.16082031 12.75753906 -16.32164062 12.14007812 -15.45703125 11.50390625 C-10.28505875 7.6950893 -5.13074717 3.86418353 0 0 Z " fill="#FFFFFF" transform="translate(904,1533)"/>
<path d="M0 0 C3.67977588 3.58678516 7.07394788 7.31388276 10.375 11.25 C10.85106689 11.81485107 11.32713379 12.37970215 11.81762695 12.96166992 C15.6649846 17.54922926 19.38572446 22.22619579 23 27 C22.01 27 21.02 27 20 27 C18.125 25.0859375 18.125 25.0859375 16 22.375 C15.21753906 21.38371094 14.43507813 20.39242188 13.62890625 19.37109375 C13.20883301 18.83081543 12.78875977 18.29053711 12.35595703 17.73388672 C10.90866705 15.88321091 9.43879895 14.05215241 7.96484375 12.22265625 C6.95525511 10.96131679 5.94613344 9.69960342 4.9375 8.4375 C4.44830078 7.83019043 3.95910156 7.22288086 3.45507812 6.59716797 C0 2.22889144 0 2.22889144 0 0 Z " fill="#FFFFFF" transform="translate(913,1544)"/>
<path d="M0 0 C8.00319109 7.74502364 15.15201404 16.23009973 22 25 C21.01 25 20.02 25 19 25 C18.67 24.01 18.34 23.02 18 22 C17.01 21.67 16.02 21.34 15 21 C13.8125 18.4375 13.8125 18.4375 13 16 C12.34 16 11.68 16 11 16 C9.43331541 14.33101325 7.944819 12.58803244 6.5 10.8125 C5.7059375 9.84957031 4.911875 8.88664062 4.09375 7.89453125 C2.19941471 5.2756834 1.02404713 3.04431404 0 0 Z " fill="#FFFFFF" transform="translate(936,1572)"/>
<path d="M0 0 C0.66 0.33 1.32 0.66 2 1 C0.25579087 2.32018588 -1.49560091 3.63088602 -3.25 4.9375 C-4.22453125 5.66839844 -5.1990625 6.39929687 -6.203125 7.15234375 C-8.6267881 8.75345079 -10.1757492 9.57636238 -13 10 C-13 10.66 -13 11.32 -13 12 C-14.8125 13.0625 -14.8125 13.0625 -17 14 C-17.99 13.67 -18.98 13.34 -20 13 C-19.50072998 12.67725098 -19.00145996 12.35450195 -18.48706055 12.02197266 C-16.22039898 10.55653366 -13.95394734 9.09077031 -11.6875 7.625 C-10.90181641 7.11710937 -10.11613281 6.60921875 -9.30664062 6.0859375 C-8.54931641 5.59609375 -7.79199219 5.10625 -7.01171875 4.6015625 C-6.31522217 4.15119629 -5.61872559 3.70083008 -4.90112305 3.23681641 C-3.2600192 2.16916107 -1.62901545 1.0860103 0 0 Z " fill="#FFFFFF" transform="translate(785,1616)"/>
<path d="M0 0 C6.70821055 5.36656844 12.28806145 11.61667627 18 18 C15 18 15 18 13.39453125 16.7578125 C12.87246094 16.21898437 12.35039062 15.68015625 11.8125 15.125 C11.28269531 14.59132813 10.75289062 14.05765625 10.20703125 13.5078125 C9 12 9 12 9 10 C8.443125 9.79375 7.88625 9.5875 7.3125 9.375 C4.02987629 7.42316968 2.29326754 5.05769006 0 2 C0 1.34 0 0.68 0 0 Z " fill="#FFFFFF" transform="translate(233,958)"/>
<path d="M0 0 C3.85476229 1.61298564 6.51633852 4.11513814 9.5625 6.9375 C10.51253906 7.81277344 11.46257812 8.68804688 12.44140625 9.58984375 C14.32719372 11.36622676 16.18695158 13.15032434 18 15 C13.94673396 14.4558115 11.91726253 12.37327476 9 9.625 C5.47722332 6.31882085 5.47722332 6.31882085 1.6875 3.3359375 C1.130625 2.89507813 0.57375 2.45421875 0 2 C0 1.34 0 0.68 0 0 Z " fill="#FFFFFF" transform="translate(1070,1714)"/>
<path d="M0 0 C3.76690636 1.73857216 6.21232537 3.90258375 9 7 C9 7.66 9 8.32 9 9 C9.99 9.33 10.98 9.66 12 10 C13.84499398 11.87617698 15.3683599 13.92737609 17 16 C16.67 16.66 16.34 17.32 16 18 C10.13121677 12.33998772 4.62661705 6.73304432 0 0 Z " fill="#FFFFFF" transform="translate(1047,248)"/>
<path d="M0 0 C-1.29649539 3.88948616 -2.84909871 4.40819737 -6.3125 6.5 C-9.66562189 8.54142 -12.9017516 10.58616277 -16 13 C-16.66 12.67 -17.32 12.34 -18 12 C-15.38084613 9.99224902 -12.75375554 7.99515805 -10.125 6 C-9.00544922 5.14148437 -9.00544922 5.14148437 -7.86328125 4.265625 C-7.14785156 3.72421875 -6.43242188 3.1828125 -5.6953125 2.625 C-5.03547363 2.12226562 -4.37563477 1.61953125 -3.69580078 1.1015625 C-2 0 -2 0 0 0 Z " fill="#FFFFFF" transform="translate(877,1554)"/>
<path d="M0 0 C4.39131785 1.51077449 6.31736792 4.91662276 8.75 8.625 C9.16121094 9.23601563 9.57242187 9.84703125 9.99609375 10.4765625 C11.00551256 11.97895328 12.0038647 13.48876909 13 15 C12.67 15.66 12.34 16.32 12 17 C10.37076065 14.91986415 8.7465453 12.83612026 7.125 10.75 C6.66480469 10.16347656 6.20460938 9.57695313 5.73046875 8.97265625 C3.49615028 6.09070923 1.4532826 3.37428833 0 0 Z " fill="#FFFFFF" transform="translate(1866,893)"/>
<path d="M0 0 C3.95969176 1.67229701 7.0161201 4.36304994 10.25 7.125 C10.80429687 7.59292969 11.35859375 8.06085937 11.9296875 8.54296875 C13.28947326 9.69175328 14.64515165 10.84539653 16 12 C15.01 12.33 14.02 12.66 13 13 C12.31292969 12.37351562 11.62585938 11.74703125 10.91796875 11.1015625 C10.01691406 10.28429687 9.11585938 9.46703125 8.1875 8.625 C7.29417969 7.81289063 6.40085937 7.00078125 5.48046875 6.1640625 C3.00367326 3.90927093 3.00367326 3.90927093 0 2 C0 1.34 0 0.68 0 0 Z " fill="#FFFFFF" transform="translate(284,1008)"/>
<path d="M0 0 C3.86715038 2.12246797 6.74405677 4.52746145 9.8125 7.6875 C10.60269531 8.49574219 11.39289063 9.30398438 12.20703125 10.13671875 C13.09455078 11.05904297 13.09455078 11.05904297 14 12 C10.45595664 12 9.89732095 11.39010515 7.3125 9.125 C6.68988281 8.59132813 6.06726563 8.05765625 5.42578125 7.5078125 C4 6 4 6 4 4 C2.68 3.34 1.36 2.68 0 2 C0 1.34 0 0.68 0 0 Z " fill="#FFFFFF" transform="translate(260,986)"/>
<path d="M0 0 C5.09210286 3.56320845 9.22660027 7.04741286 13 12 C9.57143381 10.49017269 7.04321784 8.48286031 4.25 6 C3.45078125 5.29875 2.6515625 4.5975 1.828125 3.875 C0 2 0 2 0 0 Z " fill="#FFFFFF" transform="translate(1057,1702)"/>
<path d="M0 0 C-1.25460729 3.76382187 -2.52618612 4.25041838 -5.875 6.25 C-6.75929688 6.79140625 -7.64359375 7.3328125 -8.5546875 7.890625 C-11 9 -11 9 -14 8 C-12.04532248 6.66101601 -10.0866421 5.32870953 -8.125 4 C-7.03445313 3.2575 -5.94390625 2.515 -4.8203125 1.75 C-2 0 -2 0 0 0 Z " fill="#FFFFFF" transform="translate(765,1630)"/>
<path d="M0 0 C0.66 0.33 1.32 0.66 2 1 C-6.261959 9.6309795 -6.261959 9.6309795 -11 12 C-9.55928394 8.58301375 -7.76769435 6.68041215 -4.9375 4.3125 C-3.86822266 3.40951172 -3.86822266 3.40951172 -2.77734375 2.48828125 C-1.89755859 1.75158203 -1.89755859 1.75158203 -1 1 C-0.67 0.67 -0.34 0.34 0 0 Z " fill="#FFFFFF" transform="translate(1216,474)"/>
<path d="M0 0 C4.67105792 1.55701931 8.08705685 4.08447373 12 7 C11.01 7.33 10.02 7.66 9 8 C7.28724465 6.72641268 5.62332967 5.38576923 4 4 C2.68861096 3.29114106 1.36222983 2.60543548 0 2 C0 1.34 0 0.68 0 0 Z " fill="#FFFFFF" transform="translate(355,1062)"/>
<path d="M0 0 C4.43458973 1.3937282 6.87378374 3.60582235 10 7 C9.67 7.66 9.34 8.32 9 9 C7.49704815 7.69088122 5.99770689 6.37761608 4.5 5.0625 C3.6646875 4.33160156 2.829375 3.60070312 1.96875 2.84765625 C1.3190625 2.23792969 0.669375 1.62820312 0 1 C0 0.67 0 0.34 0 0 Z " fill="#FFFFFF" transform="translate(1037,239)"/>
<path d="M0 0 C3.21043882 1.38188453 5.04936365 2.92421903 7.25 5.625 C8.03117187 6.57246094 8.03117187 6.57246094 8.828125 7.5390625 C9.40820312 8.26222656 9.40820312 8.26222656 10 9 C5.57238086 7.60846256 3.0443745 5.47928514 0 2 C0 1.34 0 0.68 0 0 Z " fill="#FFFFFF" transform="translate(1047,1693)"/>
</svg>
